<?xml version="1.0" encoding="UTF-8" standalone="no"?>
<!-- Created with Inkscape (http://www.inkscape.org/) -->

<svg
   width="500"
   height="600"
   viewBox="0 0 132.29166 158.75"
   version="1.1"
   id="svg1"
   xmlns="http://www.w3.org/2000/svg"
   xmlns:svg="http://www.w3.org/2000/svg">
  <defs
     id="defs1" />
  <g
     id="layer1">
    <g
       id="beanPile"
       transform="translate(-232.24783,-57.050382)">
      <g
         id="beanDarkBrown-2-43"
         style="stroke-width:0;stroke-dasharray:none"
         transform="matrix(0.1924401,0.05446816,-0.05446816,0.1924401,296.53319,99.752213)">
        <ellipse
           style="fill:#503d25;fill-opacity:1;stroke:#000000;stroke-width:0;stroke-dasharray:none;paint-order:markers fill stroke"
           id="path3-16-21"
           cx="66.145836"
           cy="47.625"
           rx="66.145836"
           ry="47.625" />
        <path
           d="m 131.89685,42.4279 -0.10956,0.02636 a 139.55653,139.55653 0 0 1 -65.137093,0 l -0.504362,-0.120928 -0.504362,-0.120923 a 139.55655,139.55655 0 0 0 -65.13710897,0 l -0.07855,0.0186 A 66.145836,47.625 0 0 0 2.9167847e-8,47.624999 66.145836,47.625 0 0 0 0.39480803,52.822097 l 0.109554,-0.02635 a 139.55655,139.55655 0 0 1 65.13710897,0 l 0.504362,0.120923 0.504362,0.120923 a 139.55656,139.55656 0 0 0 65.137095,0 l 0.0786,-0.0186 a 66.145836,47.625 0 0 0 0.42582,-5.365564 v -0.05684 a 66.145836,47.625 0 0 0 -0.39481,-5.168677 z"
           style="fill:#ffffff;stroke-width:0;stroke-dasharray:none;paint-order:markers fill stroke"
           id="path6-83-13" />
      </g>
      <g
         id="beanDarkBrown-2-15"
         style="stroke-width:0;stroke-dasharray:none"
         transform="matrix(-0.02208093,0.19877727,-0.19877727,-0.02208093,344.66864,105.26467)">
        <ellipse
           style="fill:#503d25;fill-opacity:1;stroke:#000000;stroke-width:0;stroke-dasharray:none;paint-order:markers fill stroke"
           id="path3-16-4"
           cx="66.145836"
           cy="47.625"
           rx="66.145836"
           ry="47.625" />
        <path
           d="m 131.89685,42.4279 -0.10956,0.02636 a 139.55653,139.55653 0 0 1 -65.137093,0 l -0.504362,-0.120928 -0.504362,-0.120923 a 139.55655,139.55655 0 0 0 -65.13710897,0 l -0.07855,0.0186 A 66.145836,47.625 0 0 0 2.9167847e-8,47.624999 66.145836,47.625 0 0 0 0.39480803,52.822097 l 0.109554,-0.02635 a 139.55655,139.55655 0 0 1 65.13710897,0 l 0.504362,0.120923 0.504362,0.120923 a 139.55656,139.55656 0 0 0 65.137095,0 l 0.0786,-0.0186 a 66.145836,47.625 0 0 0 0.42582,-5.365564 v -0.05684 a 66.145836,47.625 0 0 0 -0.39481,-5.168677 z"
           style="fill:#ffffff;stroke-width:0;stroke-dasharray:none;paint-order:markers fill stroke"
           id="path6-83-20" />
      </g>
      <g
         id="beanDarkBrown-2-2"
         style="stroke-width:0;stroke-dasharray:none"
         transform="matrix(-0.05932273,0.19099944,-0.19099944,-0.05932273,307.40242,119.05788)">
        <ellipse
           style="fill:#503d25;fill-opacity:1;stroke:#000000;stroke-width:0;stroke-dasharray:none;paint-order:markers fill stroke"
           id="path3-16-60"
           cx="66.145836"
           cy="47.625"
           rx="66.145836"
           ry="47.625" />
        <path
           d="m 131.89685,42.4279 -0.10956,0.02636 a 139.55653,139.55653 0 0 1 -65.137093,0 l -0.504362,-0.120928 -0.504362,-0.120923 a 139.55655,139.55655 0 0 0 -65.13710897,0 l -0.07855,0.0186 A 66.145836,47.625 0 0 0 2.9167847e-8,47.624999 66.145836,47.625 0 0 0 0.39480803,52.822097 l 0.109554,-0.02635 a 139.55655,139.55655 0 0 1 65.13710897,0 l 0.504362,0.120923 0.504362,0.120923 a 139.55656,139.55656 0 0 0 65.137095,0 l 0.0786,-0.0186 a 66.145836,47.625 0 0 0 0.42582,-5.365564 v -0.05684 a 66.145836,47.625 0 0 0 -0.39481,-5.168677 z"
           style="fill:#ffffff;stroke-width:0;stroke-dasharray:none;paint-order:markers fill stroke"
           id="path6-83-1" />
      </g>
      <g
         id="beanLightBrown-2-3"
         style="stroke-width:0;stroke-dasharray:none"
         transform="matrix(-0.15797941,-0.12264778,0.12264778,-0.15797941,341.32384,99.844612)">
        <ellipse
           style="fill:#b89365;fill-opacity:1;stroke:#000000;stroke-width:0;stroke-dasharray:none;paint-order:markers fill stroke"
           id="path3-5-7-0-4"
           cx="66.145836"
           cy="47.625"
           rx="66.145836"
           ry="47.625" />
        <path
           d="m 131.89685,42.4279 -0.10956,0.02636 a 139.55653,139.55653 0 0 1 -65.137093,0 l -0.504362,-0.120928 -0.504362,-0.120923 a 139.55655,139.55655 0 0 0 -65.13710897,0 l -0.07855,0.0186 A 66.145836,47.625 0 0 0 2.9167847e-8,47.624999 66.145836,47.625 0 0 0 0.39480803,52.822097 l 0.109554,-0.02635 a 139.55655,139.55655 0 0 1 65.13710897,0 l 0.504362,0.120923 0.504362,0.120923 a 139.55656,139.55656 0 0 0 65.137095,0 l 0.0786,-0.0186 a 66.145836,47.625 0 0 0 0.42582,-5.365564 v -0.05684 a 66.145836,47.625 0 0 0 -0.39481,-5.168677 z"
           style="fill:#ffffff;stroke-width:0;stroke-dasharray:none;paint-order:markers fill stroke"
           id="path6-1-6-3-0" />
      </g>
      <g
         id="beanLightBrown-2-87"
         style="stroke-width:0;stroke-dasharray:none"
         transform="matrix(0.10989693,-0.16710068,0.16710068,0.10989693,272.9995,96.62602)">
        <ellipse
           style="fill:#b89365;fill-opacity:1;stroke:#000000;stroke-width:0;stroke-dasharray:none;paint-order:markers fill stroke"
           id="path3-5-7-0-30"
           cx="66.145836"
           cy="47.625"
           rx="66.145836"
           ry="47.625" />
        <path
           d="m 131.89685,42.4279 -0.10956,0.02636 a 139.55653,139.55653 0 0 1 -65.137093,0 l -0.504362,-0.120928 -0.504362,-0.120923 a 139.55655,139.55655 0 0 0 -65.13710897,0 l -0.07855,0.0186 A 66.145836,47.625 0 0 0 2.9167847e-8,47.624999 66.145836,47.625 0 0 0 0.39480803,52.822097 l 0.109554,-0.02635 a 139.55655,139.55655 0 0 1 65.13710897,0 l 0.504362,0.120923 0.504362,0.120923 a 139.55656,139.55656 0 0 0 65.137095,0 l 0.0786,-0.0186 a 66.145836,47.625 0 0 0 0.42582,-5.365564 v -0.05684 a 66.145836,47.625 0 0 0 -0.39481,-5.168677 z"
           style="fill:#ffffff;stroke-width:0;stroke-dasharray:none;paint-order:markers fill stroke"
           id="path6-1-6-3-3" />
      </g>
      <g
         id="beanLightBrown-2-0"
         style="stroke-width:0;stroke-dasharray:none"
         transform="matrix(0.10989693,-0.16710068,0.16710068,0.10989693,290.9136,105.88049)">
        <ellipse
           style="fill:#b89365;fill-opacity:1;stroke:#000000;stroke-width:0;stroke-dasharray:none;paint-order:markers fill stroke"
           id="path3-5-7-0-37"
           cx="66.145836"
           cy="47.625"
           rx="66.145836"
           ry="47.625" />
        <path
           d="m 131.89685,42.4279 -0.10956,0.02636 a 139.55653,139.55653 0 0 1 -65.137093,0 l -0.504362,-0.120928 -0.504362,-0.120923 a 139.55655,139.55655 0 0 0 -65.13710897,0 l -0.07855,0.0186 A 66.145836,47.625 0 0 0 2.9167847e-8,47.624999 66.145836,47.625 0 0 0 0.39480803,52.822097 l 0.109554,-0.02635 a 139.55655,139.55655 0 0 1 65.13710897,0 l 0.504362,0.120923 0.504362,0.120923 a 139.55656,139.55656 0 0 0 65.137095,0 l 0.0786,-0.0186 a 66.145836,47.625 0 0 0 0.42582,-5.365564 v -0.05684 a 66.145836,47.625 0 0 0 -0.39481,-5.168677 z"
           style="fill:#ffffff;stroke-width:0;stroke-dasharray:none;paint-order:markers fill stroke"
           id="path6-1-6-3-2" />
      </g>
      <g
         id="beanDarkBrown-2-1"
         style="stroke-width:0;stroke-dasharray:none"
         transform="matrix(0.16647859,0.11083704,-0.11083704,0.16647859,318.42339,54.970416)">
        <ellipse
           style="fill:#503d25;fill-opacity:1;stroke:#000000;stroke-width:0;stroke-dasharray:none;paint-order:markers fill stroke"
           id="path3-16-6"
           cx="66.145836"
           cy="47.625"
           rx="66.145836"
           ry="47.625" />
        <path
           d="m 131.89685,42.4279 -0.10956,0.02636 a 139.55653,139.55653 0 0 1 -65.137093,0 l -0.504362,-0.120928 -0.504362,-0.120923 a 139.55655,139.55655 0 0 0 -65.13710897,0 l -0.07855,0.0186 A 66.145836,47.625 0 0 0 2.9167847e-8,47.624999 66.145836,47.625 0 0 0 0.39480803,52.822097 l 0.109554,-0.02635 a 139.55655,139.55655 0 0 1 65.13710897,0 l 0.504362,0.120923 0.504362,0.120923 a 139.55656,139.55656 0 0 0 65.137095,0 l 0.0786,-0.0186 a 66.145836,47.625 0 0 0 0.42582,-5.365564 v -0.05684 a 66.145836,47.625 0 0 0 -0.39481,-5.168677 z"
           style="fill:#ffffff;stroke-width:0;stroke-dasharray:none;paint-order:markers fill stroke"
           id="path6-83-8" />
      </g>
      <g
         id="beanDarkBrown-2-8"
         style="stroke-width:0;stroke-dasharray:none"
         transform="matrix(0.10847861,0.16802489,-0.16802489,0.10847861,316.24819,77.438181)">
        <ellipse
           style="fill:#503d25;fill-opacity:1;stroke:#000000;stroke-width:0;stroke-dasharray:none;paint-order:markers fill stroke"
           id="path3-16-9"
           cx="66.145836"
           cy="47.625"
           rx="66.145836"
           ry="47.625" />
        <path
           d="m 131.89685,42.4279 -0.10956,0.02636 a 139.55653,139.55653 0 0 1 -65.137093,0 l -0.504362,-0.120928 -0.504362,-0.120923 a 139.55655,139.55655 0 0 0 -65.13710897,0 l -0.07855,0.0186 A 66.145836,47.625 0 0 0 2.9167847e-8,47.624999 66.145836,47.625 0 0 0 0.39480803,52.822097 l 0.109554,-0.02635 a 139.55655,139.55655 0 0 1 65.13710897,0 l 0.504362,0.120923 0.504362,0.120923 a 139.55656,139.55656 0 0 0 65.137095,0 l 0.0786,-0.0186 a 66.145836,47.625 0 0 0 0.42582,-5.365564 v -0.05684 a 66.145836,47.625 0 0 0 -0.39481,-5.168677 z"
           style="fill:#ffffff;stroke-width:0;stroke-dasharray:none;paint-order:markers fill stroke"
           id="path6-83-2" />
      </g>
      <g
         id="beanDarkBrown-2-3"
         style="stroke-width:0;stroke-dasharray:none"
         transform="matrix(0.16321416,-0.11559026,0.11559026,0.16321416,258.26924,111.03198)">
        <ellipse
           style="fill:#503d25;fill-opacity:1;stroke:#000000;stroke-width:0;stroke-dasharray:none;paint-order:markers fill stroke"
           id="path3-16-12"
           cx="66.145836"
           cy="47.625"
           rx="66.145836"
           ry="47.625" />
        <path
           d="m 131.89685,42.4279 -0.10956,0.02636 a 139.55653,139.55653 0 0 1 -65.137093,0 l -0.504362,-0.120928 -0.504362,-0.120923 a 139.55655,139.55655 0 0 0 -65.13710897,0 l -0.07855,0.0186 A 66.145836,47.625 0 0 0 2.9167847e-8,47.624999 66.145836,47.625 0 0 0 0.39480803,52.822097 l 0.109554,-0.02635 a 139.55655,139.55655 0 0 1 65.13710897,0 l 0.504362,0.120923 0.504362,0.120923 a 139.55656,139.55656 0 0 0 65.137095,0 l 0.0786,-0.0186 a 66.145836,47.625 0 0 0 0.42582,-5.365564 v -0.05684 a 66.145836,47.625 0 0 0 -0.39481,-5.168677 z"
           style="fill:#ffffff;stroke-width:0;stroke-dasharray:none;paint-order:markers fill stroke"
           id="path6-83-3" />
      </g>
      <g
         id="beanBrown-7-25"
         style="stroke-width:0;stroke-dasharray:none"
         transform="matrix(0.09251181,0.17731762,-0.17731762,0.09251181,325.38829,64.895618)">
        <ellipse
           style="fill:#705533;fill-opacity:1;stroke:#000000;stroke-width:0;stroke-dasharray:none;paint-order:markers fill stroke"
           id="path3-5-30-08"
           cx="66.145836"
           cy="47.625"
           rx="66.145836"
           ry="47.625" />
        <path
           d="m 131.89685,42.4279 -0.10956,0.02636 a 139.55653,139.55653 0 0 1 -65.137093,0 l -0.504362,-0.120928 -0.504362,-0.120923 a 139.55655,139.55655 0 0 0 -65.13710897,0 l -0.07855,0.0186 A 66.145836,47.625 0 0 0 2.9167847e-8,47.624999 66.145836,47.625 0 0 0 0.39480803,52.822097 l 0.109554,-0.02635 a 139.55655,139.55655 0 0 1 65.13710897,0 l 0.504362,0.120923 0.504362,0.120923 a 139.55656,139.55656 0 0 0 65.137095,0 l 0.0786,-0.0186 a 66.145836,47.625 0 0 0 0.42582,-5.365564 v -0.05684 a 66.145836,47.625 0 0 0 -0.39481,-5.168677 z"
           style="fill:#ffffff;stroke-width:0;stroke-dasharray:none;paint-order:markers fill stroke"
           id="path6-1-0-39" />
      </g>
      <g
         id="beanBrown-7-9-4"
         style="stroke-width:0;stroke-dasharray:none"
         transform="matrix(-0.15051385,0.13170253,-0.13170253,-0.15051385,284.92351,98.638594)">
        <ellipse
           style="fill:#705533;fill-opacity:1;stroke:#000000;stroke-width:0;stroke-dasharray:none;paint-order:markers fill stroke"
           id="path3-5-30-97-0"
           cx="66.145836"
           cy="47.625"
           rx="66.145836"
           ry="47.625" />
        <path
           d="m 131.89685,42.4279 -0.10956,0.02636 a 139.55653,139.55653 0 0 1 -65.137093,0 l -0.504362,-0.120928 -0.504362,-0.120923 a 139.55655,139.55655 0 0 0 -65.13710897,0 l -0.07855,0.0186 A 66.145836,47.625 0 0 0 2.9167847e-8,47.624999 66.145836,47.625 0 0 0 0.39480803,52.822097 l 0.109554,-0.02635 a 139.55655,139.55655 0 0 1 65.13710897,0 l 0.504362,0.120923 0.504362,0.120923 a 139.55656,139.55656 0 0 0 65.137095,0 l 0.0786,-0.0186 a 66.145836,47.625 0 0 0 0.42582,-5.365564 v -0.05684 a 66.145836,47.625 0 0 0 -0.39481,-5.168677 z"
           style="fill:#ffffff;stroke-width:0;stroke-dasharray:none;paint-order:markers fill stroke"
           id="path6-1-0-6-5" />
      </g>
      <g
         id="beanBrown-7-4"
         style="stroke-width:0;stroke-dasharray:none"
         transform="matrix(-0.17055435,0.10445662,-0.10445662,-0.17055435,316.88912,100.25913)">
        <ellipse
           style="fill:#705533;fill-opacity:1;stroke:#000000;stroke-width:0;stroke-dasharray:none;paint-order:markers fill stroke"
           id="path3-5-30-1"
           cx="66.145836"
           cy="47.625"
           rx="66.145836"
           ry="47.625" />
        <path
           d="m 131.89685,42.4279 -0.10956,0.02636 a 139.55653,139.55653 0 0 1 -65.137093,0 l -0.504362,-0.120928 -0.504362,-0.120923 a 139.55655,139.55655 0 0 0 -65.13710897,0 l -0.07855,0.0186 A 66.145836,47.625 0 0 0 2.9167847e-8,47.624999 66.145836,47.625 0 0 0 0.39480803,52.822097 l 0.109554,-0.02635 a 139.55655,139.55655 0 0 1 65.13710897,0 l 0.504362,0.120923 0.504362,0.120923 a 139.55656,139.55656 0 0 0 65.137095,0 l 0.0786,-0.0186 a 66.145836,47.625 0 0 0 0.42582,-5.365564 v -0.05684 a 66.145836,47.625 0 0 0 -0.39481,-5.168677 z"
           style="fill:#ffffff;stroke-width:0;stroke-dasharray:none;paint-order:markers fill stroke"
           id="path6-1-0-2" />
      </g>
      <g
         id="beanBrown-7-6"
         style="stroke-width:0;stroke-dasharray:none"
         transform="matrix(0.09251181,0.17731762,-0.17731762,0.09251181,279.04644,111.22355)">
        <ellipse
           style="fill:#705533;fill-opacity:1;stroke:#000000;stroke-width:0;stroke-dasharray:none;paint-order:markers fill stroke"
           id="path3-5-30-0"
           cx="66.145836"
           cy="47.625"
           rx="66.145836"
           ry="47.625" />
        <path
           d="m 131.89685,42.4279 -0.10956,0.02636 a 139.55653,139.55653 0 0 1 -65.137093,0 l -0.504362,-0.120928 -0.504362,-0.120923 a 139.55655,139.55655 0 0 0 -65.13710897,0 l -0.07855,0.0186 A 66.145836,47.625 0 0 0 2.9167847e-8,47.624999 66.145836,47.625 0 0 0 0.39480803,52.822097 l 0.109554,-0.02635 a 139.55655,139.55655 0 0 1 65.13710897,0 l 0.504362,0.120923 0.504362,0.120923 a 139.55656,139.55656 0 0 0 65.137095,0 l 0.0786,-0.0186 a 66.145836,47.625 0 0 0 0.42582,-5.365564 v -0.05684 a 66.145836,47.625 0 0 0 -0.39481,-5.168677 z"
           style="fill:#ffffff;stroke-width:0;stroke-dasharray:none;paint-order:markers fill stroke"
           id="path6-1-0-7" />
      </g>
      <g
         id="beanBrown-7-8"
         style="stroke-width:0;stroke-dasharray:none"
         transform="matrix(-0.04014141,0.19593019,-0.19593019,-0.04014141,333.9033,117.38025)">
        <ellipse
           style="fill:#705533;fill-opacity:1;stroke:#000000;stroke-width:0;stroke-dasharray:none;paint-order:markers fill stroke"
           id="path3-5-30-4"
           cx="66.145836"
           cy="47.625"
           rx="66.145836"
           ry="47.625" />
        <path
           d="m 131.89685,42.4279 -0.10956,0.02636 a 139.55653,139.55653 0 0 1 -65.137093,0 l -0.504362,-0.120928 -0.504362,-0.120923 a 139.55655,139.55655 0 0 0 -65.13710897,0 l -0.07855,0.0186 A 66.145836,47.625 0 0 0 2.9167847e-8,47.624999 66.145836,47.625 0 0 0 0.39480803,52.822097 l 0.109554,-0.02635 a 139.55655,139.55655 0 0 1 65.13710897,0 l 0.504362,0.120923 0.504362,0.120923 a 139.55656,139.55656 0 0 0 65.137095,0 l 0.0786,-0.0186 a 66.145836,47.625 0 0 0 0.42582,-5.365564 v -0.05684 a 66.145836,47.625 0 0 0 -0.39481,-5.168677 z"
           style="fill:#ffffff;stroke-width:0;stroke-dasharray:none;paint-order:markers fill stroke"
           id="path6-1-0-0" />
      </g>
      <g
         id="beanLightBrown-2-8-6"
         style="stroke-width:0;stroke-dasharray:none"
         transform="matrix(0.12640341,-0.15499081,0.15499081,0.12640341,313.29013,102.51183)">
        <ellipse
           style="fill:#b89365;fill-opacity:1;stroke:#000000;stroke-width:0;stroke-dasharray:none;paint-order:markers fill stroke"
           id="path3-5-7-0-3-4"
           cx="66.145836"
           cy="47.625"
           rx="66.145836"
           ry="47.625" />
        <path
           d="m 131.89685,42.4279 -0.10956,0.02636 a 139.55653,139.55653 0 0 1 -65.137093,0 l -0.504362,-0.120928 -0.504362,-0.120923 a 139.55655,139.55655 0 0 0 -65.13710897,0 l -0.07855,0.0186 A 66.145836,47.625 0 0 0 2.9167847e-8,47.624999 66.145836,47.625 0 0 0 0.39480803,52.822097 l 0.109554,-0.02635 a 139.55655,139.55655 0 0 1 65.13710897,0 l 0.504362,0.120923 0.504362,0.120923 a 139.55656,139.55656 0 0 0 65.137095,0 l 0.0786,-0.0186 a 66.145836,47.625 0 0 0 0.42582,-5.365564 v -0.05684 a 66.145836,47.625 0 0 0 -0.39481,-5.168677 z"
           style="fill:#ffffff;stroke-width:0;stroke-dasharray:none;paint-order:markers fill stroke"
           id="path6-1-6-3-5-0" />
      </g>
      <g
         id="beanLightBrown-2-8-8"
         style="stroke-width:0;stroke-dasharray:none"
         transform="matrix(-0.16648958,-0.11082054,0.11082054,-0.16648958,314.16965,140.11492)">
        <ellipse
           style="fill:#b89365;fill-opacity:1;stroke:#000000;stroke-width:0;stroke-dasharray:none;paint-order:markers fill stroke"
           id="path3-5-7-0-3-41"
           cx="66.145836"
           cy="47.625"
           rx="66.145836"
           ry="47.625" />
        <path
           d="m 131.89685,42.4279 -0.10956,0.02636 a 139.55653,139.55653 0 0 1 -65.137093,0 l -0.504362,-0.120928 -0.504362,-0.120923 a 139.55655,139.55655 0 0 0 -65.13710897,0 l -0.07855,0.0186 A 66.145836,47.625 0 0 0 2.9167847e-8,47.624999 66.145836,47.625 0 0 0 0.39480803,52.822097 l 0.109554,-0.02635 a 139.55655,139.55655 0 0 1 65.13710897,0 l 0.504362,0.120923 0.504362,0.120923 a 139.55656,139.55656 0 0 0 65.137095,0 l 0.0786,-0.0186 a 66.145836,47.625 0 0 0 0.42582,-5.365564 v -0.05684 a 66.145836,47.625 0 0 0 -0.39481,-5.168677 z"
           style="fill:#ffffff;stroke-width:0;stroke-dasharray:none;paint-order:markers fill stroke"
           id="path6-1-6-3-5-4" />
      </g>
      <g
         id="beanLightBrown-2-8-0"
         style="stroke-width:0;stroke-dasharray:none"
         transform="matrix(-0.03756142,-0.19644112,0.19644112,-0.03756142,254.71678,144.4603)">
        <ellipse
           style="fill:#b89365;fill-opacity:1;stroke:#000000;stroke-width:0;stroke-dasharray:none;paint-order:markers fill stroke"
           id="path3-5-7-0-3-8"
           cx="66.145836"
           cy="47.625"
           rx="66.145836"
           ry="47.625" />
        <path
           d="m 131.89685,42.4279 -0.10956,0.02636 a 139.55653,139.55653 0 0 1 -65.137093,0 l -0.504362,-0.120928 -0.504362,-0.120923 a 139.55655,139.55655 0 0 0 -65.13710897,0 l -0.07855,0.0186 A 66.145836,47.625 0 0 0 2.9167847e-8,47.624999 66.145836,47.625 0 0 0 0.39480803,52.822097 l 0.109554,-0.02635 a 139.55655,139.55655 0 0 1 65.13710897,0 l 0.504362,0.120923 0.504362,0.120923 a 139.55656,139.55656 0 0 0 65.137095,0 l 0.0786,-0.0186 a 66.145836,47.625 0 0 0 0.42582,-5.365564 v -0.05684 a 66.145836,47.625 0 0 0 -0.39481,-5.168677 z"
           style="fill:#ffffff;stroke-width:0;stroke-dasharray:none;paint-order:markers fill stroke"
           id="path6-1-6-3-5-7" />
      </g>
      <g
         id="beanWhite-3-5-3-8"
         style="stroke-width:0;stroke-dasharray:none"
         transform="matrix(-0.0032386,-0.19997371,0.19997371,-0.0032386,279.20142,124.64289)">
        <ellipse
           style="fill:#dac7af;fill-opacity:1;stroke:#000000;stroke-width:0;stroke-dasharray:none;paint-order:markers fill stroke"
           id="path3-5-7-2-2-5-8-1"
           cx="66.145836"
           cy="47.625"
           rx="66.145836"
           ry="47.625" />
        <path
           d="m 131.89685,42.4279 -0.10956,0.02636 a 139.55653,139.55653 0 0 1 -65.137093,0 l -0.504362,-0.120928 -0.504362,-0.120923 a 139.55655,139.55655 0 0 0 -65.13710897,0 l -0.07855,0.0186 A 66.145836,47.625 0 0 0 2.9167847e-8,47.624999 66.145836,47.625 0 0 0 0.39480803,52.822097 l 0.109554,-0.02635 a 139.55655,139.55655 0 0 1 65.13710897,0 l 0.504362,0.120923 0.504362,0.120923 a 139.55656,139.55656 0 0 0 65.137095,0 l 0.0786,-0.0186 a 66.145836,47.625 0 0 0 0.42582,-5.365564 v -0.05684 a 66.145836,47.625 0 0 0 -0.39481,-5.168677 z"
           style="fill:#ffffff;stroke-width:0;stroke-dasharray:none;paint-order:markers fill stroke"
           id="path6-1-6-1-4-3-0-9" />
      </g>
      <g
         id="beanWhite-3-5-3-81"
         style="stroke-width:0;stroke-dasharray:none"
         transform="matrix(0.1539494,-0.12766971,0.12766971,0.1539494,304.53468,113.75286)">
        <ellipse
           style="fill:#dac7af;fill-opacity:1;stroke:#000000;stroke-width:0;stroke-dasharray:none;paint-order:markers fill stroke"
           id="path3-5-7-2-2-5-8-5"
           cx="66.145836"
           cy="47.625"
           rx="66.145836"
           ry="47.625" />
        <path
           d="m 131.89685,42.4279 -0.10956,0.02636 a 139.55653,139.55653 0 0 1 -65.137093,0 l -0.504362,-0.120928 -0.504362,-0.120923 a 139.55655,139.55655 0 0 0 -65.13710897,0 l -0.07855,0.0186 A 66.145836,47.625 0 0 0 2.9167847e-8,47.624999 66.145836,47.625 0 0 0 0.39480803,52.822097 l 0.109554,-0.02635 a 139.55655,139.55655 0 0 1 65.13710897,0 l 0.504362,0.120923 0.504362,0.120923 a 139.55656,139.55656 0 0 0 65.137095,0 l 0.0786,-0.0186 a 66.145836,47.625 0 0 0 0.42582,-5.365564 v -0.05684 a 66.145836,47.625 0 0 0 -0.39481,-5.168677 z"
           style="fill:#ffffff;stroke-width:0;stroke-dasharray:none;paint-order:markers fill stroke"
           id="path6-1-6-1-4-3-0-8" />
      </g>
      <g
         id="beanWhite-3-5-3-4"
         style="stroke-width:0;stroke-dasharray:none"
         transform="matrix(0.19828621,0.02612567,-0.02612567,0.19828621,336.38349,82.929646)">
        <ellipse
           style="fill:#dac7af;fill-opacity:1;stroke:#000000;stroke-width:0;stroke-dasharray:none;paint-order:markers fill stroke"
           id="path3-5-7-2-2-5-8-6"
           cx="66.145836"
           cy="47.625"
           rx="66.145836"
           ry="47.625" />
        <path
           d="m 131.89685,42.4279 -0.10956,0.02636 a 139.55653,139.55653 0 0 1 -65.137093,0 l -0.504362,-0.120928 -0.504362,-0.120923 a 139.55655,139.55655 0 0 0 -65.13710897,0 l -0.07855,0.0186 A 66.145836,47.625 0 0 0 2.9167847e-8,47.624999 66.145836,47.625 0 0 0 0.39480803,52.822097 l 0.109554,-0.02635 a 139.55655,139.55655 0 0 1 65.13710897,0 l 0.504362,0.120923 0.504362,0.120923 a 139.55656,139.55656 0 0 0 65.137095,0 l 0.0786,-0.0186 a 66.145836,47.625 0 0 0 0.42582,-5.365564 v -0.05684 a 66.145836,47.625 0 0 0 -0.39481,-5.168677 z"
           style="fill:#ffffff;stroke-width:0;stroke-dasharray:none;paint-order:markers fill stroke"
           id="path6-1-6-1-4-3-0-1" />
      </g>
      <g
         id="beanWhite-3-5-3-9"
         style="stroke-width:0;stroke-dasharray:none"
         transform="matrix(0.12628913,-0.15508394,0.15508394,0.12628913,291.21282,82.953178)">
        <ellipse
           style="fill:#dac7af;fill-opacity:1;stroke:#000000;stroke-width:0;stroke-dasharray:none;paint-order:markers fill stroke"
           id="path3-5-7-2-2-5-8-7"
           cx="66.145836"
           cy="47.625"
           rx="66.145836"
           ry="47.625" />
        <path
           d="m 131.89685,42.4279 -0.10956,0.02636 a 139.55653,139.55653 0 0 1 -65.137093,0 l -0.504362,-0.120928 -0.504362,-0.120923 a 139.55655,139.55655 0 0 0 -65.13710897,0 l -0.07855,0.0186 A 66.145836,47.625 0 0 0 2.9167847e-8,47.624999 66.145836,47.625 0 0 0 0.39480803,52.822097 l 0.109554,-0.02635 a 139.55655,139.55655 0 0 1 65.13710897,0 l 0.504362,0.120923 0.504362,0.120923 a 139.55656,139.55656 0 0 0 65.137095,0 l 0.0786,-0.0186 a 66.145836,47.625 0 0 0 0.42582,-5.365564 v -0.05684 a 66.145836,47.625 0 0 0 -0.39481,-5.168677 z"
           style="fill:#ffffff;stroke-width:0;stroke-dasharray:none;paint-order:markers fill stroke"
           id="path6-1-6-1-4-3-0-6" />
      </g>
      <g
         id="beanWhite-3-5-3-7"
         style="stroke-width:0;stroke-dasharray:none"
         transform="matrix(-0.18316253,0.08032098,-0.08032098,-0.18316253,275.00734,109.28235)">
        <ellipse
           style="fill:#dac7af;fill-opacity:1;stroke:#000000;stroke-width:0;stroke-dasharray:none;paint-order:markers fill stroke"
           id="path3-5-7-2-2-5-8-72"
           cx="66.145836"
           cy="47.625"
           rx="66.145836"
           ry="47.625" />
        <path
           d="m 131.89685,42.4279 -0.10956,0.02636 a 139.55653,139.55653 0 0 1 -65.137093,0 l -0.504362,-0.120928 -0.504362,-0.120923 a 139.55655,139.55655 0 0 0 -65.13710897,0 l -0.07855,0.0186 A 66.145836,47.625 0 0 0 2.9167847e-8,47.624999 66.145836,47.625 0 0 0 0.39480803,52.822097 l 0.109554,-0.02635 a 139.55655,139.55655 0 0 1 65.13710897,0 l 0.504362,0.120923 0.504362,0.120923 a 139.55656,139.55656 0 0 0 65.137095,0 l 0.0786,-0.0186 a 66.145836,47.625 0 0 0 0.42582,-5.365564 v -0.05684 a 66.145836,47.625 0 0 0 -0.39481,-5.168677 z"
           style="fill:#ffffff;stroke-width:0;stroke-dasharray:none;paint-order:markers fill stroke"
           id="path6-1-6-1-4-3-0-29" />
      </g>
    </g>
    <g
       id="horizontalPlank"
       transform="matrix(1.2140964,0,0,1.2140964,-166.84956,2.6978779)"
       style="stroke-width:1.00012;stroke-dasharray:none">
      <path
         style="fill:#705533;fill-opacity:1;stroke:#503d25;stroke-width:1.32292;stroke-dasharray:none;stroke-opacity:1;paint-order:markers fill stroke"
         d="m 36.953557,53.608681 124.913433,9.368509 65.05908,-7.807089 126.47484,8.848034 -5.20472,49.965375 6.24567,20.29843 -95.24648,-5.20472 -46.84254,7.28661 -96.80791,-14.05276 -73.907118,9.36851 -12.491344,-43.719704 z"
         id="path1-6" />
      <path
         style="fill:#503d25;fill-opacity:1;stroke:none;stroke-width:1.00012;stroke-dasharray:none;paint-order:markers fill stroke"
         d="m 158.42395,67.498161 72.34569,-5.7252 60.8953,7.8071 44.76065,-2.60237 -55.1701,5.7252 -45.28112,-7.80709 -39.55592,3.12284 z"
         id="path2-8" />
      <path
         style="fill:#503d25;fill-opacity:1;stroke:none;stroke-width:1.00012;stroke-dasharray:none;paint-order:markers fill stroke"
         d="m 248.1045,120.82959 -72.3457,5.7252 -46.54213,-7.8071 -71.605148,2.60237 67.661428,-5.7252 45.28112,7.80709 35.87562,-2.01875 z"
         id="path2-2-5-3" />
    </g>
    <g
       id="verticalPlank2"
       transform="matrix(0.02711537,0.77648271,-0.77648271,0.02711537,203.88828,6.6574779)"
       style="stroke:#000000;stroke-width:0;stroke-dasharray:none;stroke-opacity:1">
      <path
         style="fill:#705533;fill-opacity:1;stroke:#503d25;stroke-width:2.07323;stroke-dasharray:none;stroke-opacity:1;paint-order:markers fill stroke"
         d="m 36.953557,53.608681 124.913433,9.368509 65.05908,-7.807089 126.47484,8.848034 -5.20472,49.965375 6.24567,20.29843 -95.24648,-5.20472 -46.84254,7.28661 -96.80791,-14.05276 -73.907118,9.36851 -12.491344,-43.719704 z"
         id="path1-3-8-55" />
      <path
         style="fill:#503d25;fill-opacity:1;stroke:#000000;stroke-width:0;stroke-dasharray:none;stroke-opacity:1;paint-order:markers fill stroke"
         d="m 248.1045,120.82959 -72.3457,5.7252 -46.54213,-7.8071 -71.605148,2.60237 67.661428,-5.7252 45.28112,7.80709 35.87562,-2.01875 z"
         id="path2-2-5-1-0-0" />
      <path
         style="fill:#503d25;fill-opacity:1;stroke:#000000;stroke-width:0;stroke-dasharray:none;stroke-opacity:1;paint-order:markers fill stroke"
         d="m 200.13141,105.7545 -61.41577,-3.6433 -24.46221,5.20472 -24.462222,-3.64331 22.380332,7.80709 25.50316,-5.7252 z"
         id="path3-1-3-4-6" />
      <g
         id="g7-4-5-11"
         transform="matrix(0.72727264,0,0,0.72727264,-11.258659,-61.421669)"
         style="fill:#503d25;fill-opacity:1;stroke:#000000;stroke-width:0;stroke-dasharray:none;stroke-opacity:1">
        <path
           style="fill:#503d25;fill-opacity:1;stroke:#000000;stroke-width:0;stroke-dasharray:none;stroke-opacity:1;paint-order:markers fill stroke"
           d="m 188.88927,215.86878 -6.79098,-14.55208 -14.55208,-1.4552 -7.76111,6.79097 0.48507,12.12673 8.24618,6.79098 15.52222,-3.39549 -15.52222,-1.45521 -4.8507,-9.21632 6.79098,-7.27604 9.70138,1.45521 z"
           id="path5-2-0-1" />
        <path
           style="fill:#503d25;fill-opacity:1;stroke:#000000;stroke-width:0;stroke-dasharray:none;stroke-opacity:1;paint-order:markers fill stroke"
           d="m 169.73995,206.11895 8.78624,0.5953 4.35209,8.34592 -9.02808,5.58597 -6.18082,-8.69511 7.75066,4.4343 2.88165,-3.838 -2.87783,-3.54567 z"
           id="path6-7-9-7" />
        <path
           style="fill:#503d25;fill-opacity:1;stroke:#000000;stroke-width:0;stroke-dasharray:none;stroke-opacity:1;paint-order:markers fill stroke"
           d="m 171.5197,209.09855 3.43342,1.00465 -1.3483,1.99481 1.40659,2.70537 -5.77188,-3.79153 z"
           id="path7-7-0-3" />
      </g>
      <path
         style="fill:#503d25;fill-opacity:1;stroke:#000000;stroke-width:0;stroke-dasharray:none;stroke-opacity:1;paint-order:markers fill stroke"
         d="m 42.863927,103.64587 25.317581,7.63608 28.801488,2.00214 -33.759657,0.86047 z"
         id="path11-9-3-0" />
    </g>
    <g
       id="verticalPlank"
       transform="matrix(0.02711537,-0.77648271,-0.77648271,-0.02711537,66.304944,310.84263)"
       style="stroke:#000000;stroke-width:0;stroke-dasharray:none;stroke-opacity:1">
      <path
         style="fill:#705533;fill-opacity:1;stroke:#503d25;stroke-width:2.07323;stroke-dasharray:none;stroke-opacity:1;paint-order:markers fill stroke"
         d="m 36.953557,53.608681 124.913433,9.368509 65.05908,-7.807089 126.47484,8.848034 -5.20472,49.965375 6.24567,20.29843 -95.24648,-5.20472 -46.84254,7.28661 -96.80791,-14.05276 -73.907118,9.36851 -12.491344,-43.719704 z"
         id="path1-3-8-55-5" />
      <path
         style="fill:#503d25;fill-opacity:1;stroke:#000000;stroke-width:0;stroke-dasharray:none;stroke-opacity:1;paint-order:markers fill stroke"
         d="m 148.85518,73.386637 72.34569,-5.7252 60.8953,7.8071 57.25199,-2.60237 -67.66144,5.7252 -45.28112,-7.80709 -39.55592,3.12284 z"
         id="path2-4-6-4-6" />
      <path
         style="fill:#503d25;fill-opacity:1;stroke:#000000;stroke-width:0;stroke-dasharray:none;stroke-opacity:1;paint-order:markers fill stroke"
         d="m 230.72475,92.743268 61.41577,3.6433 24.46221,-5.20472 24.46222,3.64331 -22.38033,-7.80709 -25.50316,5.7252 z"
         id="path3-18-1-2-2-8" />
      <path
         style="fill:#503d25;fill-opacity:1;stroke:#000000;stroke-width:0;stroke-dasharray:none;stroke-opacity:1;paint-order:markers fill stroke"
         d="m 171.86989,87.591081 10.67286,-1.1041 14.72119,2.94424 23.92193,-5.52044 16.56134,2.94424 -21.34572,0.73606 -23.92194,6.99256 -7.72862,-5.15242 z"
         id="path9-3-6-4-4" />
    </g>
  </g>
</svg>
