<?xml version="1.0" encoding="UTF-8" standalone="no"?>
<!-- Created with Inkscape (http://www.inkscape.org/) -->

<svg
   width="1920"
   height="911"
   viewBox="0 0 507.99998 241.03541"
   version="1.1"
   id="svg1"
   xmlns="http://www.w3.org/2000/svg"
   xmlns:svg="http://www.w3.org/2000/svg">
  <defs
     id="defs1" />
  <g
     id="layer1">
    <g
       id="fallingBeans"
       transform="translate(1.6953812)">
      <g
         id="beanWhite-5"
         style="stroke-width:0;stroke-dasharray:none"
         transform="matrix(0.1208202,-0.15938146,0.15938146,0.1208202,36.673802,180.83179)">
        <ellipse
           style="fill:#dac7af;fill-opacity:1;stroke:#000000;stroke-width:0;stroke-dasharray:none;paint-order:markers fill stroke"
           id="path3-5-7-2-3"
           cx="66.145836"
           cy="47.625"
           rx="66.145836"
           ry="47.625" />
        <path
           d="m 131.89685,42.4279 -0.10956,0.02636 a 139.55653,139.55653 0 0 1 -65.137093,0 l -0.504362,-0.120928 -0.504362,-0.120923 a 139.55655,139.55655 0 0 0 -65.13710897,0 l -0.07855,0.0186 A 66.145836,47.625 0 0 0 2.9167847e-8,47.624999 66.145836,47.625 0 0 0 0.39480803,52.822097 l 0.109554,-0.02635 a 139.55655,139.55655 0 0 1 65.13710897,0 l 0.504362,0.120923 0.504362,0.120923 a 139.55656,139.55656 0 0 0 65.137095,0 l 0.0786,-0.0186 a 66.145836,47.625 0 0 0 0.42582,-5.365564 v -0.05684 a 66.145836,47.625 0 0 0 -0.39481,-5.168677 z"
           style="fill:#ffffff;stroke-width:0;stroke-dasharray:none;paint-order:markers fill stroke"
           id="path6-1-6-1-0" />
      </g>
      <g
         id="beanLightBrown-8"
         style="stroke-width:0;stroke-dasharray:none"
         transform="matrix(0.08091408,-0.18290129,0.18290129,0.08091408,40.675976,14.588599)">
        <ellipse
           style="fill:#b89365;fill-opacity:1;stroke:#000000;stroke-width:0;stroke-dasharray:none;paint-order:markers fill stroke"
           id="path3-5-7-9"
           cx="66.145836"
           cy="47.625"
           rx="66.145836"
           ry="47.625" />
        <path
           d="m 131.89685,42.4279 -0.10956,0.02636 a 139.55653,139.55653 0 0 1 -65.137093,0 l -0.504362,-0.120928 -0.504362,-0.120923 a 139.55655,139.55655 0 0 0 -65.13710897,0 l -0.07855,0.0186 A 66.145836,47.625 0 0 0 2.9167847e-8,47.624999 66.145836,47.625 0 0 0 0.39480803,52.822097 l 0.109554,-0.02635 a 139.55655,139.55655 0 0 1 65.13710897,0 l 0.504362,0.120923 0.504362,0.120923 a 139.55656,139.55656 0 0 0 65.137095,0 l 0.0786,-0.0186 a 66.145836,47.625 0 0 0 0.42582,-5.365564 v -0.05684 a 66.145836,47.625 0 0 0 -0.39481,-5.168677 z"
           style="fill:#ffffff;stroke-width:0;stroke-dasharray:none;paint-order:markers fill stroke"
           id="path6-1-6-8" />
      </g>
      <g
         id="beanWhite-4"
         style="stroke-width:0;stroke-dasharray:none"
         transform="matrix(0.16450899,0.1137399,-0.1137399,0.16450899,49.363622,212.32878)">
        <ellipse
           style="fill:#dac7af;fill-opacity:1;stroke:#000000;stroke-width:0;stroke-dasharray:none;paint-order:markers fill stroke"
           id="path3-5-7-2-7"
           cx="66.145836"
           cy="47.625"
           rx="66.145836"
           ry="47.625" />
        <path
           d="m 131.89685,42.4279 -0.10956,0.02636 a 139.55653,139.55653 0 0 1 -65.137093,0 l -0.504362,-0.120928 -0.504362,-0.120923 a 139.55655,139.55655 0 0 0 -65.13710897,0 l -0.07855,0.0186 A 66.145836,47.625 0 0 0 2.9167847e-8,47.624999 66.145836,47.625 0 0 0 0.39480803,52.822097 l 0.109554,-0.02635 a 139.55655,139.55655 0 0 1 65.13710897,0 l 0.504362,0.120923 0.504362,0.120923 a 139.55656,139.55656 0 0 0 65.137095,0 l 0.0786,-0.0186 a 66.145836,47.625 0 0 0 0.42582,-5.365564 v -0.05684 a 66.145836,47.625 0 0 0 -0.39481,-5.168677 z"
           style="fill:#ffffff;stroke-width:0;stroke-dasharray:none;paint-order:markers fill stroke"
           id="path6-1-6-1-46" />
      </g>
      <g
         id="beanLightBrown-4"
         style="stroke-width:0;stroke-dasharray:none"
         transform="matrix(0.18438058,0.07748401,-0.07748401,0.18438058,28.999176,41.602402)">
        <ellipse
           style="fill:#b89365;fill-opacity:1;stroke:#000000;stroke-width:0;stroke-dasharray:none;paint-order:markers fill stroke"
           id="path3-5-7-5"
           cx="66.145836"
           cy="47.625"
           rx="66.145836"
           ry="47.625" />
        <path
           d="m 131.89685,42.4279 -0.10956,0.02636 a 139.55653,139.55653 0 0 1 -65.137093,0 l -0.504362,-0.120928 -0.504362,-0.120923 a 139.55655,139.55655 0 0 0 -65.13710897,0 l -0.07855,0.0186 A 66.145836,47.625 0 0 0 2.9167847e-8,47.624999 66.145836,47.625 0 0 0 0.39480803,52.822097 l 0.109554,-0.02635 a 139.55655,139.55655 0 0 1 65.13710897,0 l 0.504362,0.120923 0.504362,0.120923 a 139.55656,139.55656 0 0 0 65.137095,0 l 0.0786,-0.0186 a 66.145836,47.625 0 0 0 0.42582,-5.365564 v -0.05684 a 66.145836,47.625 0 0 0 -0.39481,-5.168677 z"
           style="fill:#ffffff;stroke-width:0;stroke-dasharray:none;paint-order:markers fill stroke"
           id="path6-1-6-0" />
      </g>
      <g
         id="beanWhite-3"
         style="stroke-width:0;stroke-dasharray:none"
         transform="matrix(0.14064729,-0.14219111,0.14219111,0.14064729,37.663498,29.877096)">
        <ellipse
           style="fill:#dac7af;fill-opacity:1;stroke:#000000;stroke-width:0;stroke-dasharray:none;paint-order:markers fill stroke"
           id="path3-5-7-2-2"
           cx="66.145836"
           cy="47.625"
           rx="66.145836"
           ry="47.625" />
        <path
           d="m 131.89685,42.4279 -0.10956,0.02636 a 139.55653,139.55653 0 0 1 -65.137093,0 l -0.504362,-0.120928 -0.504362,-0.120923 a 139.55655,139.55655 0 0 0 -65.13710897,0 l -0.07855,0.0186 A 66.145836,47.625 0 0 0 2.9167847e-8,47.624999 66.145836,47.625 0 0 0 0.39480803,52.822097 l 0.109554,-0.02635 a 139.55655,139.55655 0 0 1 65.13710897,0 l 0.504362,0.120923 0.504362,0.120923 a 139.55656,139.55656 0 0 0 65.137095,0 l 0.0786,-0.0186 a 66.145836,47.625 0 0 0 0.42582,-5.365564 v -0.05684 a 66.145836,47.625 0 0 0 -0.39481,-5.168677 z"
           style="fill:#ffffff;stroke-width:0;stroke-dasharray:none;paint-order:markers fill stroke"
           id="path6-1-6-1-4" />
      </g>
      <g
         id="beanDarkBrown-2-7"
         style="stroke-width:0;stroke-dasharray:none"
         transform="matrix(0.07576287,-0.18509446,0.18509446,0.07576287,40.212379,136.81514)">
        <ellipse
           style="fill:#503d25;fill-opacity:1;stroke:#000000;stroke-width:0;stroke-dasharray:none;paint-order:markers fill stroke"
           id="path3-16-0"
           cx="66.145836"
           cy="47.625"
           rx="66.145836"
           ry="47.625" />
        <path
           d="m 131.89685,42.4279 -0.10956,0.02636 a 139.55653,139.55653 0 0 1 -65.137093,0 l -0.504362,-0.120928 -0.504362,-0.120923 a 139.55655,139.55655 0 0 0 -65.13710897,0 l -0.07855,0.0186 A 66.145836,47.625 0 0 0 2.9167847e-8,47.624999 66.145836,47.625 0 0 0 0.39480803,52.822097 l 0.109554,-0.02635 a 139.55655,139.55655 0 0 1 65.13710897,0 l 0.504362,0.120923 0.504362,0.120923 a 139.55656,139.55656 0 0 0 65.137095,0 l 0.0786,-0.0186 a 66.145836,47.625 0 0 0 0.42582,-5.365564 v -0.05684 a 66.145836,47.625 0 0 0 -0.39481,-5.168677 z"
           style="fill:#ffffff;stroke-width:0;stroke-dasharray:none;paint-order:markers fill stroke"
           id="path6-83-5" />
      </g>
      <g
         id="beanLightBrown-8-9"
         style="stroke-width:0;stroke-dasharray:none"
         transform="matrix(0.08091408,-0.18290129,0.18290129,0.08091408,40.676048,255.62391)">
        <ellipse
           style="fill:#b89365;fill-opacity:1;stroke:#000000;stroke-width:0;stroke-dasharray:none;paint-order:markers fill stroke"
           id="path3-5-7-9-8"
           cx="66.145836"
           cy="47.625"
           rx="66.145836"
           ry="47.625" />
        <path
           d="m 131.89685,42.4279 -0.10956,0.02636 a 139.55653,139.55653 0 0 1 -65.137093,0 l -0.504362,-0.120928 -0.504362,-0.120923 a 139.55655,139.55655 0 0 0 -65.13710897,0 l -0.07855,0.0186 A 66.145836,47.625 0 0 0 2.9167847e-8,47.624999 66.145836,47.625 0 0 0 0.39480803,52.822097 l 0.109554,-0.02635 a 139.55655,139.55655 0 0 1 65.13710897,0 l 0.504362,0.120923 0.504362,0.120923 a 139.55656,139.55656 0 0 0 65.137095,0 l 0.0786,-0.0186 a 66.145836,47.625 0 0 0 0.42582,-5.365564 v -0.05684 a 66.145836,47.625 0 0 0 -0.39481,-5.168677 z"
           style="fill:#ffffff;stroke-width:0;stroke-dasharray:none;paint-order:markers fill stroke"
           id="path6-1-6-8-8" />
      </g>
      <g
         id="beanWhite-9"
         style="stroke-width:0;stroke-dasharray:none"
         transform="matrix(0.11431275,0.16411145,-0.16411145,0.11431275,36.968773,56.457213)">
        <ellipse
           style="fill:#dac7af;fill-opacity:1;stroke:#000000;stroke-width:0;stroke-dasharray:none;paint-order:markers fill stroke"
           id="path3-5-7-2-23"
           cx="66.145836"
           cy="47.625"
           rx="66.145836"
           ry="47.625" />
        <path
           d="m 131.89685,42.4279 -0.10956,0.02636 a 139.55653,139.55653 0 0 1 -65.137093,0 l -0.504362,-0.120928 -0.504362,-0.120923 a 139.55655,139.55655 0 0 0 -65.13710897,0 l -0.07855,0.0186 A 66.145836,47.625 0 0 0 2.9167847e-8,47.624999 66.145836,47.625 0 0 0 0.39480803,52.822097 l 0.109554,-0.02635 a 139.55655,139.55655 0 0 1 65.13710897,0 l 0.504362,0.120923 0.504362,0.120923 a 139.55656,139.55656 0 0 0 65.137095,0 l 0.0786,-0.0186 a 66.145836,47.625 0 0 0 0.42582,-5.365564 v -0.05684 a 66.145836,47.625 0 0 0 -0.39481,-5.168677 z"
           style="fill:#ffffff;stroke-width:0;stroke-dasharray:none;paint-order:markers fill stroke"
           id="path6-1-6-1-7" />
      </g>
      <g
         id="beanDarkBrown-2-4"
         style="stroke-width:0;stroke-dasharray:none"
         transform="matrix(0.13593323,-0.14670423,0.14670423,0.13593323,23.399184,173.25415)">
        <ellipse
           style="fill:#503d25;fill-opacity:1;stroke:#000000;stroke-width:0;stroke-dasharray:none;paint-order:markers fill stroke"
           id="path3-16-9"
           cx="66.145836"
           cy="47.625"
           rx="66.145836"
           ry="47.625" />
        <path
           d="m 131.89685,42.4279 -0.10956,0.02636 a 139.55653,139.55653 0 0 1 -65.137093,0 l -0.504362,-0.120928 -0.504362,-0.120923 a 139.55655,139.55655 0 0 0 -65.13710897,0 l -0.07855,0.0186 A 66.145836,47.625 0 0 0 2.9167847e-8,47.624999 66.145836,47.625 0 0 0 0.39480803,52.822097 l 0.109554,-0.02635 a 139.55655,139.55655 0 0 1 65.13710897,0 l 0.504362,0.120923 0.504362,0.120923 a 139.55656,139.55656 0 0 0 65.137095,0 l 0.0786,-0.0186 a 66.145836,47.625 0 0 0 0.42582,-5.365564 v -0.05684 a 66.145836,47.625 0 0 0 -0.39481,-5.168677 z"
           style="fill:#ffffff;stroke-width:0;stroke-dasharray:none;paint-order:markers fill stroke"
           id="path6-83-2" />
      </g>
      <g
         id="beanDarkBrown-2-45"
         style="stroke-width:0;stroke-dasharray:none"
         transform="matrix(0.18939639,-0.06425713,0.06425713,0.18939639,33.608761,205.74364)">
        <ellipse
           style="fill:#503d25;fill-opacity:1;stroke:#000000;stroke-width:0;stroke-dasharray:none;paint-order:markers fill stroke"
           id="path3-16-7"
           cx="66.145836"
           cy="47.625"
           rx="66.145836"
           ry="47.625" />
        <path
           d="m 131.89685,42.4279 -0.10956,0.02636 a 139.55653,139.55653 0 0 1 -65.137093,0 l -0.504362,-0.120928 -0.504362,-0.120923 a 139.55655,139.55655 0 0 0 -65.13710897,0 l -0.07855,0.0186 A 66.145836,47.625 0 0 0 2.9167847e-8,47.624999 66.145836,47.625 0 0 0 0.39480803,52.822097 l 0.109554,-0.02635 a 139.55655,139.55655 0 0 1 65.13710897,0 l 0.504362,0.120923 0.504362,0.120923 a 139.55656,139.55656 0 0 0 65.137095,0 l 0.0786,-0.0186 a 66.145836,47.625 0 0 0 0.42582,-5.365564 v -0.05684 a 66.145836,47.625 0 0 0 -0.39481,-5.168677 z"
           style="fill:#ffffff;stroke-width:0;stroke-dasharray:none;paint-order:markers fill stroke"
           id="path6-83-9" />
      </g>
      <g
         id="beanLightBrown-3"
         style="stroke-width:0;stroke-dasharray:none"
         transform="matrix(-0.05251475,-0.1929823,0.1929823,-0.05251475,31.565153,208.05774)">
        <ellipse
           style="fill:#b89365;fill-opacity:1;stroke:#000000;stroke-width:0;stroke-dasharray:none;paint-order:markers fill stroke"
           id="path3-5-7-99"
           cx="66.145836"
           cy="47.625"
           rx="66.145836"
           ry="47.625" />
        <path
           d="m 131.89685,42.4279 -0.10956,0.02636 a 139.55653,139.55653 0 0 1 -65.137093,0 l -0.504362,-0.120928 -0.504362,-0.120923 a 139.55655,139.55655 0 0 0 -65.13710897,0 l -0.07855,0.0186 A 66.145836,47.625 0 0 0 2.9167847e-8,47.624999 66.145836,47.625 0 0 0 0.39480803,52.822097 l 0.109554,-0.02635 a 139.55655,139.55655 0 0 1 65.13710897,0 l 0.504362,0.120923 0.504362,0.120923 a 139.55656,139.55656 0 0 0 65.137095,0 l 0.0786,-0.0186 a 66.145836,47.625 0 0 0 0.42582,-5.365564 v -0.05684 a 66.145836,47.625 0 0 0 -0.39481,-5.168677 z"
           style="fill:#ffffff;stroke-width:0;stroke-dasharray:none;paint-order:markers fill stroke"
           id="path6-1-6-5" />
      </g>
      <g
         id="beanBrown-2"
         style="stroke-width:0;stroke-dasharray:none"
         transform="matrix(-0.01613637,-0.19934791,0.19934791,-0.01613637,29.386786,40.43669)">
        <ellipse
           style="fill:#705533;fill-opacity:1;stroke:#000000;stroke-width:0;stroke-dasharray:none;paint-order:markers fill stroke"
           id="path3-5-3"
           cx="66.145836"
           cy="47.625"
           rx="66.145836"
           ry="47.625" />
        <path
           d="m 131.89685,42.4279 -0.10956,0.02636 a 139.55653,139.55653 0 0 1 -65.137093,0 l -0.504362,-0.120928 -0.504362,-0.120923 a 139.55655,139.55655 0 0 0 -65.13710897,0 l -0.07855,0.0186 A 66.145836,47.625 0 0 0 2.9167847e-8,47.624999 66.145836,47.625 0 0 0 0.39480803,52.822097 l 0.109554,-0.02635 a 139.55655,139.55655 0 0 1 65.13710897,0 l 0.504362,0.120923 0.504362,0.120923 a 139.55656,139.55656 0 0 0 65.137095,0 l 0.0786,-0.0186 a 66.145836,47.625 0 0 0 0.42582,-5.365564 v -0.05684 a 66.145836,47.625 0 0 0 -0.39481,-5.168677 z"
           style="fill:#ffffff;stroke-width:0;stroke-dasharray:none;paint-order:markers fill stroke"
           id="path6-1-67" />
      </g>
      <g
         id="beanDarkBrown-2"
         style="stroke-width:0;stroke-dasharray:none"
         transform="matrix(0.1924401,0.05446816,-0.05446816,0.1924401,39.918768,31.401633)">
        <ellipse
           style="fill:#503d25;fill-opacity:1;stroke:#000000;stroke-width:0;stroke-dasharray:none;paint-order:markers fill stroke"
           id="path3-16"
           cx="66.145836"
           cy="47.625"
           rx="66.145836"
           ry="47.625" />
        <path
           d="m 131.89685,42.4279 -0.10956,0.02636 a 139.55653,139.55653 0 0 1 -65.137093,0 l -0.504362,-0.120928 -0.504362,-0.120923 a 139.55655,139.55655 0 0 0 -65.13710897,0 l -0.07855,0.0186 A 66.145836,47.625 0 0 0 2.9167847e-8,47.624999 66.145836,47.625 0 0 0 0.39480803,52.822097 l 0.109554,-0.02635 a 139.55655,139.55655 0 0 1 65.13710897,0 l 0.504362,0.120923 0.504362,0.120923 a 139.55656,139.55656 0 0 0 65.137095,0 l 0.0786,-0.0186 a 66.145836,47.625 0 0 0 0.42582,-5.365564 v -0.05684 a 66.145836,47.625 0 0 0 -0.39481,-5.168677 z"
           style="fill:#ffffff;stroke-width:0;stroke-dasharray:none;paint-order:markers fill stroke"
           id="path6-83" />
      </g>
      <g
         id="beanLightBrown-7"
         style="stroke-width:0;stroke-dasharray:none"
         transform="matrix(0.09578478,-0.17557121,0.17557121,0.09578478,21.460966,123.62537)">
        <ellipse
           style="fill:#b89365;fill-opacity:1;stroke:#000000;stroke-width:0;stroke-dasharray:none;paint-order:markers fill stroke"
           id="path3-5-7-6"
           cx="66.145836"
           cy="47.625"
           rx="66.145836"
           ry="47.625" />
        <path
           d="m 131.89685,42.4279 -0.10956,0.02636 a 139.55653,139.55653 0 0 1 -65.137093,0 l -0.504362,-0.120928 -0.504362,-0.120923 a 139.55655,139.55655 0 0 0 -65.13710897,0 l -0.07855,0.0186 A 66.145836,47.625 0 0 0 2.9167847e-8,47.624999 66.145836,47.625 0 0 0 0.39480803,52.822097 l 0.109554,-0.02635 a 139.55655,139.55655 0 0 1 65.13710897,0 l 0.504362,0.120923 0.504362,0.120923 a 139.55656,139.55656 0 0 0 65.137095,0 l 0.0786,-0.0186 a 66.145836,47.625 0 0 0 0.42582,-5.365564 v -0.05684 a 66.145836,47.625 0 0 0 -0.39481,-5.168677 z"
           style="fill:#ffffff;stroke-width:0;stroke-dasharray:none;paint-order:markers fill stroke"
           id="path6-1-6-7" />
      </g>
      <g
         id="beanBrown-0"
         style="stroke-width:0;stroke-dasharray:none"
         transform="matrix(0.10471585,-0.17039531,0.17039531,0.10471585,38.93927,69.91913)">
        <ellipse
           style="fill:#705533;fill-opacity:1;stroke:#000000;stroke-width:0;stroke-dasharray:none;paint-order:markers fill stroke"
           id="path3-5-2"
           cx="66.145836"
           cy="47.625"
           rx="66.145836"
           ry="47.625" />
        <path
           d="m 131.89685,42.4279 -0.10956,0.02636 a 139.55653,139.55653 0 0 1 -65.137093,0 l -0.504362,-0.120928 -0.504362,-0.120923 a 139.55655,139.55655 0 0 0 -65.13710897,0 l -0.07855,0.0186 A 66.145836,47.625 0 0 0 2.9167847e-8,47.624999 66.145836,47.625 0 0 0 0.39480803,52.822097 l 0.109554,-0.02635 a 139.55655,139.55655 0 0 1 65.13710897,0 l 0.504362,0.120923 0.504362,0.120923 a 139.55656,139.55656 0 0 0 65.137095,0 l 0.0786,-0.0186 a 66.145836,47.625 0 0 0 0.42582,-5.365564 v -0.05684 a 66.145836,47.625 0 0 0 -0.39481,-5.168677 z"
           style="fill:#ffffff;stroke-width:0;stroke-dasharray:none;paint-order:markers fill stroke"
           id="path6-1-60" />
      </g>
      <g
         id="beanWhite-8"
         style="stroke-width:0;stroke-dasharray:none"
         transform="matrix(0.06407541,-0.18945795,0.18945795,0.06407541,40.395563,114.54969)">
        <ellipse
           style="fill:#dac7af;fill-opacity:1;stroke:#000000;stroke-width:0;stroke-dasharray:none;paint-order:markers fill stroke"
           id="path3-5-7-2-5"
           cx="66.145836"
           cy="47.625"
           rx="66.145836"
           ry="47.625" />
        <path
           d="m 131.89685,42.4279 -0.10956,0.02636 a 139.55653,139.55653 0 0 1 -65.137093,0 l -0.504362,-0.120928 -0.504362,-0.120923 a 139.55655,139.55655 0 0 0 -65.13710897,0 l -0.07855,0.0186 A 66.145836,47.625 0 0 0 2.9167847e-8,47.624999 66.145836,47.625 0 0 0 0.39480803,52.822097 l 0.109554,-0.02635 a 139.55655,139.55655 0 0 1 65.13710897,0 l 0.504362,0.120923 0.504362,0.120923 a 139.55656,139.55656 0 0 0 65.137095,0 l 0.0786,-0.0186 a 66.145836,47.625 0 0 0 0.42582,-5.365564 v -0.05684 a 66.145836,47.625 0 0 0 -0.39481,-5.168677 z"
           style="fill:#ffffff;stroke-width:0;stroke-dasharray:none;paint-order:markers fill stroke"
           id="path6-1-6-1-8" />
      </g>
      <g
         id="beanBrown-7"
         style="stroke-width:0;stroke-dasharray:none"
         transform="matrix(0.09251181,0.17731762,-0.17731762,0.09251181,45.283384,92.406153)">
        <ellipse
           style="fill:#705533;fill-opacity:1;stroke:#000000;stroke-width:0;stroke-dasharray:none;paint-order:markers fill stroke"
           id="path3-5-30"
           cx="66.145836"
           cy="47.625"
           rx="66.145836"
           ry="47.625" />
        <path
           d="m 131.89685,42.4279 -0.10956,0.02636 a 139.55653,139.55653 0 0 1 -65.137093,0 l -0.504362,-0.120928 -0.504362,-0.120923 a 139.55655,139.55655 0 0 0 -65.13710897,0 l -0.07855,0.0186 A 66.145836,47.625 0 0 0 2.9167847e-8,47.624999 66.145836,47.625 0 0 0 0.39480803,52.822097 l 0.109554,-0.02635 a 139.55655,139.55655 0 0 1 65.13710897,0 l 0.504362,0.120923 0.504362,0.120923 a 139.55656,139.55656 0 0 0 65.137095,0 l 0.0786,-0.0186 a 66.145836,47.625 0 0 0 0.42582,-5.365564 v -0.05684 a 66.145836,47.625 0 0 0 -0.39481,-5.168677 z"
           style="fill:#ffffff;stroke-width:0;stroke-dasharray:none;paint-order:markers fill stroke"
           id="path6-1-0" />
      </g>
      <g
         id="beanWhite-1"
         style="stroke-width:0;stroke-dasharray:none"
         transform="matrix(0.14682373,0.13580414,-0.13580414,0.14682373,37.45395,120.20505)">
        <ellipse
           style="fill:#dac7af;fill-opacity:1;stroke:#000000;stroke-width:0;stroke-dasharray:none;paint-order:markers fill stroke"
           id="path3-5-7-2-59"
           cx="66.145836"
           cy="47.625"
           rx="66.145836"
           ry="47.625" />
        <path
           d="m 131.89685,42.4279 -0.10956,0.02636 a 139.55653,139.55653 0 0 1 -65.137093,0 l -0.504362,-0.120928 -0.504362,-0.120923 a 139.55655,139.55655 0 0 0 -65.13710897,0 l -0.07855,0.0186 A 66.145836,47.625 0 0 0 2.9167847e-8,47.624999 66.145836,47.625 0 0 0 0.39480803,52.822097 l 0.109554,-0.02635 a 139.55655,139.55655 0 0 1 65.13710897,0 l 0.504362,0.120923 0.504362,0.120923 a 139.55656,139.55656 0 0 0 65.137095,0 l 0.0786,-0.0186 a 66.145836,47.625 0 0 0 0.42582,-5.365564 v -0.05684 a 66.145836,47.625 0 0 0 -0.39481,-5.168677 z"
           style="fill:#ffffff;stroke-width:0;stroke-dasharray:none;paint-order:markers fill stroke"
           id="path6-1-6-1-5" />
      </g>
      <g
         id="beanBrown-1"
         style="stroke-width:0;stroke-dasharray:none"
         transform="matrix(0.03980655,-0.19599849,0.19599849,0.03980655,27.743821,161.17102)">
        <ellipse
           style="fill:#705533;fill-opacity:1;stroke:#000000;stroke-width:0;stroke-dasharray:none;paint-order:markers fill stroke"
           id="path3-5-29"
           cx="66.145836"
           cy="47.625"
           rx="66.145836"
           ry="47.625" />
        <path
           d="m 131.89685,42.4279 -0.10956,0.02636 a 139.55653,139.55653 0 0 1 -65.137093,0 l -0.504362,-0.120928 -0.504362,-0.120923 a 139.55655,139.55655 0 0 0 -65.13710897,0 l -0.07855,0.0186 A 66.145836,47.625 0 0 0 2.9167847e-8,47.624999 66.145836,47.625 0 0 0 0.39480803,52.822097 l 0.109554,-0.02635 a 139.55655,139.55655 0 0 1 65.13710897,0 l 0.504362,0.120923 0.504362,0.120923 a 139.55656,139.55656 0 0 0 65.137095,0 l 0.0786,-0.0186 a 66.145836,47.625 0 0 0 0.42582,-5.365564 v -0.05684 a 66.145836,47.625 0 0 0 -0.39481,-5.168677 z"
           style="fill:#ffffff;stroke-width:0;stroke-dasharray:none;paint-order:markers fill stroke"
           id="path6-1-03" />
      </g>
      <g
         id="beanDarkBrown-6-5"
         style="stroke-width:0;stroke-dasharray:none"
         transform="matrix(0.15878338,0.12160513,-0.12160513,0.15878338,34.976042,229.66291)">
        <ellipse
           style="fill:#503d25;fill-opacity:1;stroke:#000000;stroke-width:0;stroke-dasharray:none;paint-order:markers fill stroke"
           id="path3-1-4"
           cx="66.145836"
           cy="47.625"
           rx="66.145836"
           ry="47.625" />
        <path
           d="m 131.89685,42.4279 -0.10956,0.02636 a 139.55653,139.55653 0 0 1 -65.137093,0 l -0.504362,-0.120928 -0.504362,-0.120923 a 139.55655,139.55655 0 0 0 -65.13710897,0 l -0.07855,0.0186 A 66.145836,47.625 0 0 0 2.9167847e-8,47.624999 66.145836,47.625 0 0 0 0.39480803,52.822097 l 0.109554,-0.02635 a 139.55655,139.55655 0 0 1 65.13710897,0 l 0.504362,0.120923 0.504362,0.120923 a 139.55656,139.55656 0 0 0 65.137095,0 l 0.0786,-0.0186 a 66.145836,47.625 0 0 0 0.42582,-5.365564 v -0.05684 a 66.145836,47.625 0 0 0 -0.39481,-5.168677 z"
           style="fill:#ffffff;stroke-width:0;stroke-dasharray:none;paint-order:markers fill stroke"
           id="path6-8-3" />
      </g>
      <g
         id="beanBrown-70"
         style="stroke-width:0;stroke-dasharray:none"
         transform="matrix(0.1706812,0.10424923,-0.10424923,0.1706812,47.880697,178.21501)">
        <ellipse
           style="fill:#705533;fill-opacity:1;stroke:#000000;stroke-width:0;stroke-dasharray:none;paint-order:markers fill stroke"
           id="path3-5-8"
           cx="66.145836"
           cy="47.625"
           rx="66.145836"
           ry="47.625" />
        <path
           d="m 131.89685,42.4279 -0.10956,0.02636 a 139.55653,139.55653 0 0 1 -65.137093,0 l -0.504362,-0.120928 -0.504362,-0.120923 a 139.55655,139.55655 0 0 0 -65.13710897,0 l -0.07855,0.0186 A 66.145836,47.625 0 0 0 2.9167847e-8,47.624999 66.145836,47.625 0 0 0 0.39480803,52.822097 l 0.109554,-0.02635 a 139.55655,139.55655 0 0 1 65.13710897,0 l 0.504362,0.120923 0.504362,0.120923 a 139.55656,139.55656 0 0 0 65.137095,0 l 0.0786,-0.0186 a 66.145836,47.625 0 0 0 0.42582,-5.365564 v -0.05684 a 66.145836,47.625 0 0 0 -0.39481,-5.168677 z"
           style="fill:#ffffff;stroke-width:0;stroke-dasharray:none;paint-order:markers fill stroke"
           id="path6-1-9" />
      </g>
      <g
         id="beanDarkBrown-6"
         style="stroke-width:0;stroke-dasharray:none"
         transform="matrix(0.15878338,0.12160514,-0.12160514,0.15878338,34.976082,-11.372404)">
        <ellipse
           style="fill:#503d25;fill-opacity:1;stroke:#000000;stroke-width:0;stroke-dasharray:none;paint-order:markers fill stroke"
           id="path3-1"
           cx="66.145836"
           cy="47.625"
           rx="66.145836"
           ry="47.625" />
        <path
           d="m 131.89685,42.4279 -0.10956,0.02636 a 139.55653,139.55653 0 0 1 -65.137093,0 l -0.504362,-0.120928 -0.504362,-0.120923 a 139.55655,139.55655 0 0 0 -65.13710897,0 l -0.07855,0.0186 A 66.145836,47.625 0 0 0 2.9167847e-8,47.624999 66.145836,47.625 0 0 0 0.39480803,52.822097 l 0.109554,-0.02635 a 139.55655,139.55655 0 0 1 65.13710897,0 l 0.504362,0.120923 0.504362,0.120923 a 139.55656,139.55656 0 0 0 65.137095,0 l 0.0786,-0.0186 a 66.145836,47.625 0 0 0 0.42582,-5.365564 v -0.05684 a 66.145836,47.625 0 0 0 -0.39481,-5.168677 z"
           style="fill:#ffffff;stroke-width:0;stroke-dasharray:none;paint-order:markers fill stroke"
           id="path6-8" />
      </g>
      <g
         id="beanDarkBrown-2-9"
         style="stroke-width:0;stroke-dasharray:none"
         transform="matrix(0.16804308,-0.10845043,0.10845043,0.16804308,22.641547,88.504593)">
        <ellipse
           style="fill:#503d25;fill-opacity:1;stroke:#000000;stroke-width:0;stroke-dasharray:none;paint-order:markers fill stroke"
           id="path3-16-2"
           cx="66.145836"
           cy="47.625"
           rx="66.145836"
           ry="47.625" />
        <path
           d="m 131.89685,42.4279 -0.10956,0.02636 a 139.55653,139.55653 0 0 1 -65.137093,0 l -0.504362,-0.120928 -0.504362,-0.120923 a 139.55655,139.55655 0 0 0 -65.13710897,0 l -0.07855,0.0186 A 66.145836,47.625 0 0 0 2.9167847e-8,47.624999 66.145836,47.625 0 0 0 0.39480803,52.822097 l 0.109554,-0.02635 a 139.55655,139.55655 0 0 1 65.13710897,0 l 0.504362,0.120923 0.504362,0.120923 a 139.55656,139.55656 0 0 0 65.137095,0 l 0.0786,-0.0186 a 66.145836,47.625 0 0 0 0.42582,-5.365564 v -0.05684 a 66.145836,47.625 0 0 0 -0.39481,-5.168677 z"
           style="fill:#ffffff;stroke-width:0;stroke-dasharray:none;paint-order:markers fill stroke"
           id="path6-83-0" />
      </g>
      <g
         id="beanBrown-78"
         style="stroke-width:0;stroke-dasharray:none"
         transform="matrix(0.07093822,0.18699663,-0.18699663,0.07093822,43.107113,211.71661)">
        <ellipse
           style="fill:#705533;fill-opacity:1;stroke:#000000;stroke-width:0;stroke-dasharray:none;paint-order:markers fill stroke"
           id="path3-5-37"
           cx="66.145836"
           cy="47.625"
           rx="66.145836"
           ry="47.625" />
        <path
           d="m 131.89685,42.4279 -0.10956,0.02636 a 139.55653,139.55653 0 0 1 -65.137093,0 l -0.504362,-0.120928 -0.504362,-0.120923 a 139.55655,139.55655 0 0 0 -65.13710897,0 l -0.07855,0.0186 A 66.145836,47.625 0 0 0 2.9167847e-8,47.624999 66.145836,47.625 0 0 0 0.39480803,52.822097 l 0.109554,-0.02635 a 139.55655,139.55655 0 0 1 65.13710897,0 l 0.504362,0.120923 0.504362,0.120923 a 139.55656,139.55656 0 0 0 65.137095,0 l 0.0786,-0.0186 a 66.145836,47.625 0 0 0 0.42582,-5.365564 v -0.05684 a 66.145836,47.625 0 0 0 -0.39481,-5.168677 z"
           style="fill:#ffffff;stroke-width:0;stroke-dasharray:none;paint-order:markers fill stroke"
           id="path6-1-1" />
      </g>
      <g
         id="beanLightBrown-2"
         style="stroke-width:0;stroke-dasharray:none"
         transform="matrix(0.10989693,-0.16710068,0.16710068,0.10989693,38.220339,88.158311)">
        <ellipse
           style="fill:#b89365;fill-opacity:1;stroke:#000000;stroke-width:0;stroke-dasharray:none;paint-order:markers fill stroke"
           id="path3-5-7-0"
           cx="66.145836"
           cy="47.625"
           rx="66.145836"
           ry="47.625" />
        <path
           d="m 131.89685,42.4279 -0.10956,0.02636 a 139.55653,139.55653 0 0 1 -65.137093,0 l -0.504362,-0.120928 -0.504362,-0.120923 a 139.55655,139.55655 0 0 0 -65.13710897,0 l -0.07855,0.0186 A 66.145836,47.625 0 0 0 2.9167847e-8,47.624999 66.145836,47.625 0 0 0 0.39480803,52.822097 l 0.109554,-0.02635 a 139.55655,139.55655 0 0 1 65.13710897,0 l 0.504362,0.120923 0.504362,0.120923 a 139.55656,139.55656 0 0 0 65.137095,0 l 0.0786,-0.0186 a 66.145836,47.625 0 0 0 0.42582,-5.365564 v -0.05684 a 66.145836,47.625 0 0 0 -0.39481,-5.168677 z"
           style="fill:#ffffff;stroke-width:0;stroke-dasharray:none;paint-order:markers fill stroke"
           id="path6-1-6-3" />
      </g>
      <g
         id="beanLightBrown-6"
         style="stroke-width:0;stroke-dasharray:none"
         transform="matrix(-0.13036821,-0.15167104,0.15167104,-0.13036821,55.61562,171.2154)">
        <ellipse
           style="fill:#b89365;fill-opacity:1;stroke:#000000;stroke-width:0;stroke-dasharray:none;paint-order:markers fill stroke"
           id="path3-5-7-27"
           cx="66.145836"
           cy="47.625"
           rx="66.145836"
           ry="47.625" />
        <path
           d="m 131.89685,42.4279 -0.10956,0.02636 a 139.55653,139.55653 0 0 1 -65.137093,0 l -0.504362,-0.120928 -0.504362,-0.120923 a 139.55655,139.55655 0 0 0 -65.13710897,0 l -0.07855,0.0186 A 66.145836,47.625 0 0 0 2.9167847e-8,47.624999 66.145836,47.625 0 0 0 0.39480803,52.822097 l 0.109554,-0.02635 a 139.55655,139.55655 0 0 1 65.13710897,0 l 0.504362,0.120923 0.504362,0.120923 a 139.55656,139.55656 0 0 0 65.137095,0 l 0.0786,-0.0186 a 66.145836,47.625 0 0 0 0.42582,-5.365564 v -0.05684 a 66.145836,47.625 0 0 0 -0.39481,-5.168677 z"
           style="fill:#ffffff;stroke-width:0;stroke-dasharray:none;paint-order:markers fill stroke"
           id="path6-1-6-2" />
      </g>
    </g>
    <g
       id="fallingBeans2"
       transform="translate(414.55801,1.2426742e-4)">
      <g
         id="beanWhite-5-1"
         style="stroke-width:0;stroke-dasharray:none"
         transform="matrix(0.1208202,-0.15938146,0.15938146,0.1208202,36.673802,180.83179)">
        <ellipse
           style="fill:#dac7af;fill-opacity:1;stroke:#000000;stroke-width:0;stroke-dasharray:none;paint-order:markers fill stroke"
           id="path3-5-7-2-3-0"
           cx="66.145836"
           cy="47.625"
           rx="66.145836"
           ry="47.625" />
        <path
           d="m 131.89685,42.4279 -0.10956,0.02636 a 139.55653,139.55653 0 0 1 -65.137093,0 l -0.504362,-0.120928 -0.504362,-0.120923 a 139.55655,139.55655 0 0 0 -65.13710897,0 l -0.07855,0.0186 A 66.145836,47.625 0 0 0 2.9167847e-8,47.624999 66.145836,47.625 0 0 0 0.39480803,52.822097 l 0.109554,-0.02635 a 139.55655,139.55655 0 0 1 65.13710897,0 l 0.504362,0.120923 0.504362,0.120923 a 139.55656,139.55656 0 0 0 65.137095,0 l 0.0786,-0.0186 a 66.145836,47.625 0 0 0 0.42582,-5.365564 v -0.05684 a 66.145836,47.625 0 0 0 -0.39481,-5.168677 z"
           style="fill:#ffffff;stroke-width:0;stroke-dasharray:none;paint-order:markers fill stroke"
           id="path6-1-6-1-0-3" />
      </g>
      <g
         id="beanLightBrown-8-1"
         style="stroke-width:0;stroke-dasharray:none"
         transform="matrix(0.08091408,-0.18290129,0.18290129,0.08091408,40.675976,14.588599)">
        <ellipse
           style="fill:#b89365;fill-opacity:1;stroke:#000000;stroke-width:0;stroke-dasharray:none;paint-order:markers fill stroke"
           id="path3-5-7-9-5"
           cx="66.145836"
           cy="47.625"
           rx="66.145836"
           ry="47.625" />
        <path
           d="m 131.89685,42.4279 -0.10956,0.02636 a 139.55653,139.55653 0 0 1 -65.137093,0 l -0.504362,-0.120928 -0.504362,-0.120923 a 139.55655,139.55655 0 0 0 -65.13710897,0 l -0.07855,0.0186 A 66.145836,47.625 0 0 0 2.9167847e-8,47.624999 66.145836,47.625 0 0 0 0.39480803,52.822097 l 0.109554,-0.02635 a 139.55655,139.55655 0 0 1 65.13710897,0 l 0.504362,0.120923 0.504362,0.120923 a 139.55656,139.55656 0 0 0 65.137095,0 l 0.0786,-0.0186 a 66.145836,47.625 0 0 0 0.42582,-5.365564 v -0.05684 a 66.145836,47.625 0 0 0 -0.39481,-5.168677 z"
           style="fill:#ffffff;stroke-width:0;stroke-dasharray:none;paint-order:markers fill stroke"
           id="path6-1-6-8-5" />
      </g>
      <g
         id="beanWhite-4-2"
         style="stroke-width:0;stroke-dasharray:none"
         transform="matrix(0.16450899,0.1137399,-0.1137399,0.16450899,49.363622,212.32878)">
        <ellipse
           style="fill:#dac7af;fill-opacity:1;stroke:#000000;stroke-width:0;stroke-dasharray:none;paint-order:markers fill stroke"
           id="path3-5-7-2-7-2"
           cx="66.145836"
           cy="47.625"
           rx="66.145836"
           ry="47.625" />
        <path
           d="m 131.89685,42.4279 -0.10956,0.02636 a 139.55653,139.55653 0 0 1 -65.137093,0 l -0.504362,-0.120928 -0.504362,-0.120923 a 139.55655,139.55655 0 0 0 -65.13710897,0 l -0.07855,0.0186 A 66.145836,47.625 0 0 0 2.9167847e-8,47.624999 66.145836,47.625 0 0 0 0.39480803,52.822097 l 0.109554,-0.02635 a 139.55655,139.55655 0 0 1 65.13710897,0 l 0.504362,0.120923 0.504362,0.120923 a 139.55656,139.55656 0 0 0 65.137095,0 l 0.0786,-0.0186 a 66.145836,47.625 0 0 0 0.42582,-5.365564 v -0.05684 a 66.145836,47.625 0 0 0 -0.39481,-5.168677 z"
           style="fill:#ffffff;stroke-width:0;stroke-dasharray:none;paint-order:markers fill stroke"
           id="path6-1-6-1-46-1" />
      </g>
      <g
         id="beanLightBrown-4-7"
         style="stroke-width:0;stroke-dasharray:none"
         transform="matrix(0.18438058,0.07748401,-0.07748401,0.18438058,28.999176,41.602402)">
        <ellipse
           style="fill:#b89365;fill-opacity:1;stroke:#000000;stroke-width:0;stroke-dasharray:none;paint-order:markers fill stroke"
           id="path3-5-7-5-4"
           cx="66.145836"
           cy="47.625"
           rx="66.145836"
           ry="47.625" />
        <path
           d="m 131.89685,42.4279 -0.10956,0.02636 a 139.55653,139.55653 0 0 1 -65.137093,0 l -0.504362,-0.120928 -0.504362,-0.120923 a 139.55655,139.55655 0 0 0 -65.13710897,0 l -0.07855,0.0186 A 66.145836,47.625 0 0 0 2.9167847e-8,47.624999 66.145836,47.625 0 0 0 0.39480803,52.822097 l 0.109554,-0.02635 a 139.55655,139.55655 0 0 1 65.13710897,0 l 0.504362,0.120923 0.504362,0.120923 a 139.55656,139.55656 0 0 0 65.137095,0 l 0.0786,-0.0186 a 66.145836,47.625 0 0 0 0.42582,-5.365564 v -0.05684 a 66.145836,47.625 0 0 0 -0.39481,-5.168677 z"
           style="fill:#ffffff;stroke-width:0;stroke-dasharray:none;paint-order:markers fill stroke"
           id="path6-1-6-0-8" />
      </g>
      <g
         id="beanWhite-3-2"
         style="stroke-width:0;stroke-dasharray:none"
         transform="matrix(0.14064729,-0.14219111,0.14219111,0.14064729,37.663498,29.877096)">
        <ellipse
           style="fill:#dac7af;fill-opacity:1;stroke:#000000;stroke-width:0;stroke-dasharray:none;paint-order:markers fill stroke"
           id="path3-5-7-2-2-3"
           cx="66.145836"
           cy="47.625"
           rx="66.145836"
           ry="47.625" />
        <path
           d="m 131.89685,42.4279 -0.10956,0.02636 a 139.55653,139.55653 0 0 1 -65.137093,0 l -0.504362,-0.120928 -0.504362,-0.120923 a 139.55655,139.55655 0 0 0 -65.13710897,0 l -0.07855,0.0186 A 66.145836,47.625 0 0 0 2.9167847e-8,47.624999 66.145836,47.625 0 0 0 0.39480803,52.822097 l 0.109554,-0.02635 a 139.55655,139.55655 0 0 1 65.13710897,0 l 0.504362,0.120923 0.504362,0.120923 a 139.55656,139.55656 0 0 0 65.137095,0 l 0.0786,-0.0186 a 66.145836,47.625 0 0 0 0.42582,-5.365564 v -0.05684 a 66.145836,47.625 0 0 0 -0.39481,-5.168677 z"
           style="fill:#ffffff;stroke-width:0;stroke-dasharray:none;paint-order:markers fill stroke"
           id="path6-1-6-1-4-6" />
      </g>
      <g
         id="beanDarkBrown-2-7-3"
         style="stroke-width:0;stroke-dasharray:none"
         transform="matrix(0.07576287,-0.18509446,0.18509446,0.07576287,40.212379,136.81514)">
        <ellipse
           style="fill:#503d25;fill-opacity:1;stroke:#000000;stroke-width:0;stroke-dasharray:none;paint-order:markers fill stroke"
           id="path3-16-0-0"
           cx="66.145836"
           cy="47.625"
           rx="66.145836"
           ry="47.625" />
        <path
           d="m 131.89685,42.4279 -0.10956,0.02636 a 139.55653,139.55653 0 0 1 -65.137093,0 l -0.504362,-0.120928 -0.504362,-0.120923 a 139.55655,139.55655 0 0 0 -65.13710897,0 l -0.07855,0.0186 A 66.145836,47.625 0 0 0 2.9167847e-8,47.624999 66.145836,47.625 0 0 0 0.39480803,52.822097 l 0.109554,-0.02635 a 139.55655,139.55655 0 0 1 65.13710897,0 l 0.504362,0.120923 0.504362,0.120923 a 139.55656,139.55656 0 0 0 65.137095,0 l 0.0786,-0.0186 a 66.145836,47.625 0 0 0 0.42582,-5.365564 v -0.05684 a 66.145836,47.625 0 0 0 -0.39481,-5.168677 z"
           style="fill:#ffffff;stroke-width:0;stroke-dasharray:none;paint-order:markers fill stroke"
           id="path6-83-5-3" />
      </g>
      <g
         id="beanLightBrown-8-9-5"
         style="stroke-width:0;stroke-dasharray:none"
         transform="matrix(0.08091408,-0.18290129,0.18290129,0.08091408,40.676048,255.62391)">
        <ellipse
           style="fill:#b89365;fill-opacity:1;stroke:#000000;stroke-width:0;stroke-dasharray:none;paint-order:markers fill stroke"
           id="path3-5-7-9-8-2"
           cx="66.145836"
           cy="47.625"
           rx="66.145836"
           ry="47.625" />
        <path
           d="m 131.89685,42.4279 -0.10956,0.02636 a 139.55653,139.55653 0 0 1 -65.137093,0 l -0.504362,-0.120928 -0.504362,-0.120923 a 139.55655,139.55655 0 0 0 -65.13710897,0 l -0.07855,0.0186 A 66.145836,47.625 0 0 0 2.9167847e-8,47.624999 66.145836,47.625 0 0 0 0.39480803,52.822097 l 0.109554,-0.02635 a 139.55655,139.55655 0 0 1 65.13710897,0 l 0.504362,0.120923 0.504362,0.120923 a 139.55656,139.55656 0 0 0 65.137095,0 l 0.0786,-0.0186 a 66.145836,47.625 0 0 0 0.42582,-5.365564 v -0.05684 a 66.145836,47.625 0 0 0 -0.39481,-5.168677 z"
           style="fill:#ffffff;stroke-width:0;stroke-dasharray:none;paint-order:markers fill stroke"
           id="path6-1-6-8-8-8" />
      </g>
      <g
         id="beanWhite-9-0"
         style="stroke-width:0;stroke-dasharray:none"
         transform="matrix(0.11431275,0.16411145,-0.16411145,0.11431275,36.968773,56.457213)">
        <ellipse
           style="fill:#dac7af;fill-opacity:1;stroke:#000000;stroke-width:0;stroke-dasharray:none;paint-order:markers fill stroke"
           id="path3-5-7-2-23-7"
           cx="66.145836"
           cy="47.625"
           rx="66.145836"
           ry="47.625" />
        <path
           d="m 131.89685,42.4279 -0.10956,0.02636 a 139.55653,139.55653 0 0 1 -65.137093,0 l -0.504362,-0.120928 -0.504362,-0.120923 a 139.55655,139.55655 0 0 0 -65.13710897,0 l -0.07855,0.0186 A 66.145836,47.625 0 0 0 2.9167847e-8,47.624999 66.145836,47.625 0 0 0 0.39480803,52.822097 l 0.109554,-0.02635 a 139.55655,139.55655 0 0 1 65.13710897,0 l 0.504362,0.120923 0.504362,0.120923 a 139.55656,139.55656 0 0 0 65.137095,0 l 0.0786,-0.0186 a 66.145836,47.625 0 0 0 0.42582,-5.365564 v -0.05684 a 66.145836,47.625 0 0 0 -0.39481,-5.168677 z"
           style="fill:#ffffff;stroke-width:0;stroke-dasharray:none;paint-order:markers fill stroke"
           id="path6-1-6-1-7-2" />
      </g>
      <g
         id="beanDarkBrown-2-4-2"
         style="stroke-width:0;stroke-dasharray:none"
         transform="matrix(0.13593323,-0.14670423,0.14670423,0.13593323,23.399184,173.25415)">
        <ellipse
           style="fill:#503d25;fill-opacity:1;stroke:#000000;stroke-width:0;stroke-dasharray:none;paint-order:markers fill stroke"
           id="path3-16-9-5"
           cx="66.145836"
           cy="47.625"
           rx="66.145836"
           ry="47.625" />
        <path
           d="m 131.89685,42.4279 -0.10956,0.02636 a 139.55653,139.55653 0 0 1 -65.137093,0 l -0.504362,-0.120928 -0.504362,-0.120923 a 139.55655,139.55655 0 0 0 -65.13710897,0 l -0.07855,0.0186 A 66.145836,47.625 0 0 0 2.9167847e-8,47.624999 66.145836,47.625 0 0 0 0.39480803,52.822097 l 0.109554,-0.02635 a 139.55655,139.55655 0 0 1 65.13710897,0 l 0.504362,0.120923 0.504362,0.120923 a 139.55656,139.55656 0 0 0 65.137095,0 l 0.0786,-0.0186 a 66.145836,47.625 0 0 0 0.42582,-5.365564 v -0.05684 a 66.145836,47.625 0 0 0 -0.39481,-5.168677 z"
           style="fill:#ffffff;stroke-width:0;stroke-dasharray:none;paint-order:markers fill stroke"
           id="path6-83-2-9" />
      </g>
      <g
         id="beanDarkBrown-2-45-1"
         style="stroke-width:0;stroke-dasharray:none"
         transform="matrix(0.18939639,-0.06425713,0.06425713,0.18939639,33.608761,205.74364)">
        <ellipse
           style="fill:#503d25;fill-opacity:1;stroke:#000000;stroke-width:0;stroke-dasharray:none;paint-order:markers fill stroke"
           id="path3-16-7-0"
           cx="66.145836"
           cy="47.625"
           rx="66.145836"
           ry="47.625" />
        <path
           d="m 131.89685,42.4279 -0.10956,0.02636 a 139.55653,139.55653 0 0 1 -65.137093,0 l -0.504362,-0.120928 -0.504362,-0.120923 a 139.55655,139.55655 0 0 0 -65.13710897,0 l -0.07855,0.0186 A 66.145836,47.625 0 0 0 2.9167847e-8,47.624999 66.145836,47.625 0 0 0 0.39480803,52.822097 l 0.109554,-0.02635 a 139.55655,139.55655 0 0 1 65.13710897,0 l 0.504362,0.120923 0.504362,0.120923 a 139.55656,139.55656 0 0 0 65.137095,0 l 0.0786,-0.0186 a 66.145836,47.625 0 0 0 0.42582,-5.365564 v -0.05684 a 66.145836,47.625 0 0 0 -0.39481,-5.168677 z"
           style="fill:#ffffff;stroke-width:0;stroke-dasharray:none;paint-order:markers fill stroke"
           id="path6-83-9-8" />
      </g>
      <g
         id="beanLightBrown-3-5"
         style="stroke-width:0;stroke-dasharray:none"
         transform="matrix(-0.05251475,-0.1929823,0.1929823,-0.05251475,31.565153,208.05774)">
        <ellipse
           style="fill:#b89365;fill-opacity:1;stroke:#000000;stroke-width:0;stroke-dasharray:none;paint-order:markers fill stroke"
           id="path3-5-7-99-0"
           cx="66.145836"
           cy="47.625"
           rx="66.145836"
           ry="47.625" />
        <path
           d="m 131.89685,42.4279 -0.10956,0.02636 a 139.55653,139.55653 0 0 1 -65.137093,0 l -0.504362,-0.120928 -0.504362,-0.120923 a 139.55655,139.55655 0 0 0 -65.13710897,0 l -0.07855,0.0186 A 66.145836,47.625 0 0 0 2.9167847e-8,47.624999 66.145836,47.625 0 0 0 0.39480803,52.822097 l 0.109554,-0.02635 a 139.55655,139.55655 0 0 1 65.13710897,0 l 0.504362,0.120923 0.504362,0.120923 a 139.55656,139.55656 0 0 0 65.137095,0 l 0.0786,-0.0186 a 66.145836,47.625 0 0 0 0.42582,-5.365564 v -0.05684 a 66.145836,47.625 0 0 0 -0.39481,-5.168677 z"
           style="fill:#ffffff;stroke-width:0;stroke-dasharray:none;paint-order:markers fill stroke"
           id="path6-1-6-5-7" />
      </g>
      <g
         id="beanBrown-2-9"
         style="stroke-width:0;stroke-dasharray:none"
         transform="matrix(-0.01613637,-0.19934791,0.19934791,-0.01613637,29.386786,40.43669)">
        <ellipse
           style="fill:#705533;fill-opacity:1;stroke:#000000;stroke-width:0;stroke-dasharray:none;paint-order:markers fill stroke"
           id="path3-5-3-0"
           cx="66.145836"
           cy="47.625"
           rx="66.145836"
           ry="47.625" />
        <path
           d="m 131.89685,42.4279 -0.10956,0.02636 a 139.55653,139.55653 0 0 1 -65.137093,0 l -0.504362,-0.120928 -0.504362,-0.120923 a 139.55655,139.55655 0 0 0 -65.13710897,0 l -0.07855,0.0186 A 66.145836,47.625 0 0 0 2.9167847e-8,47.624999 66.145836,47.625 0 0 0 0.39480803,52.822097 l 0.109554,-0.02635 a 139.55655,139.55655 0 0 1 65.13710897,0 l 0.504362,0.120923 0.504362,0.120923 a 139.55656,139.55656 0 0 0 65.137095,0 l 0.0786,-0.0186 a 66.145836,47.625 0 0 0 0.42582,-5.365564 v -0.05684 a 66.145836,47.625 0 0 0 -0.39481,-5.168677 z"
           style="fill:#ffffff;stroke-width:0;stroke-dasharray:none;paint-order:markers fill stroke"
           id="path6-1-67-5" />
      </g>
      <g
         id="beanDarkBrown-2-3"
         style="stroke-width:0;stroke-dasharray:none"
         transform="matrix(0.1924401,0.05446816,-0.05446816,0.1924401,39.918768,31.401633)">
        <ellipse
           style="fill:#503d25;fill-opacity:1;stroke:#000000;stroke-width:0;stroke-dasharray:none;paint-order:markers fill stroke"
           id="path3-16-4"
           cx="66.145836"
           cy="47.625"
           rx="66.145836"
           ry="47.625" />
        <path
           d="m 131.89685,42.4279 -0.10956,0.02636 a 139.55653,139.55653 0 0 1 -65.137093,0 l -0.504362,-0.120928 -0.504362,-0.120923 a 139.55655,139.55655 0 0 0 -65.13710897,0 l -0.07855,0.0186 A 66.145836,47.625 0 0 0 2.9167847e-8,47.624999 66.145836,47.625 0 0 0 0.39480803,52.822097 l 0.109554,-0.02635 a 139.55655,139.55655 0 0 1 65.13710897,0 l 0.504362,0.120923 0.504362,0.120923 a 139.55656,139.55656 0 0 0 65.137095,0 l 0.0786,-0.0186 a 66.145836,47.625 0 0 0 0.42582,-5.365564 v -0.05684 a 66.145836,47.625 0 0 0 -0.39481,-5.168677 z"
           style="fill:#ffffff;stroke-width:0;stroke-dasharray:none;paint-order:markers fill stroke"
           id="path6-83-1" />
      </g>
      <g
         id="beanLightBrown-7-0"
         style="stroke-width:0;stroke-dasharray:none"
         transform="matrix(0.09578478,-0.17557121,0.17557121,0.09578478,21.460966,123.62537)">
        <ellipse
           style="fill:#b89365;fill-opacity:1;stroke:#000000;stroke-width:0;stroke-dasharray:none;paint-order:markers fill stroke"
           id="path3-5-7-6-4"
           cx="66.145836"
           cy="47.625"
           rx="66.145836"
           ry="47.625" />
        <path
           d="m 131.89685,42.4279 -0.10956,0.02636 a 139.55653,139.55653 0 0 1 -65.137093,0 l -0.504362,-0.120928 -0.504362,-0.120923 a 139.55655,139.55655 0 0 0 -65.13710897,0 l -0.07855,0.0186 A 66.145836,47.625 0 0 0 2.9167847e-8,47.624999 66.145836,47.625 0 0 0 0.39480803,52.822097 l 0.109554,-0.02635 a 139.55655,139.55655 0 0 1 65.13710897,0 l 0.504362,0.120923 0.504362,0.120923 a 139.55656,139.55656 0 0 0 65.137095,0 l 0.0786,-0.0186 a 66.145836,47.625 0 0 0 0.42582,-5.365564 v -0.05684 a 66.145836,47.625 0 0 0 -0.39481,-5.168677 z"
           style="fill:#ffffff;stroke-width:0;stroke-dasharray:none;paint-order:markers fill stroke"
           id="path6-1-6-7-8" />
      </g>
      <g
         id="beanBrown-0-5"
         style="stroke-width:0;stroke-dasharray:none"
         transform="matrix(0.10471585,-0.17039531,0.17039531,0.10471585,38.93927,69.91913)">
        <ellipse
           style="fill:#705533;fill-opacity:1;stroke:#000000;stroke-width:0;stroke-dasharray:none;paint-order:markers fill stroke"
           id="path3-5-2-9"
           cx="66.145836"
           cy="47.625"
           rx="66.145836"
           ry="47.625" />
        <path
           d="m 131.89685,42.4279 -0.10956,0.02636 a 139.55653,139.55653 0 0 1 -65.137093,0 l -0.504362,-0.120928 -0.504362,-0.120923 a 139.55655,139.55655 0 0 0 -65.13710897,0 l -0.07855,0.0186 A 66.145836,47.625 0 0 0 2.9167847e-8,47.624999 66.145836,47.625 0 0 0 0.39480803,52.822097 l 0.109554,-0.02635 a 139.55655,139.55655 0 0 1 65.13710897,0 l 0.504362,0.120923 0.504362,0.120923 a 139.55656,139.55656 0 0 0 65.137095,0 l 0.0786,-0.0186 a 66.145836,47.625 0 0 0 0.42582,-5.365564 v -0.05684 a 66.145836,47.625 0 0 0 -0.39481,-5.168677 z"
           style="fill:#ffffff;stroke-width:0;stroke-dasharray:none;paint-order:markers fill stroke"
           id="path6-1-60-2" />
      </g>
      <g
         id="beanWhite-8-5"
         style="stroke-width:0;stroke-dasharray:none"
         transform="matrix(0.06407541,-0.18945795,0.18945795,0.06407541,40.395563,114.54969)">
        <ellipse
           style="fill:#dac7af;fill-opacity:1;stroke:#000000;stroke-width:0;stroke-dasharray:none;paint-order:markers fill stroke"
           id="path3-5-7-2-5-4"
           cx="66.145836"
           cy="47.625"
           rx="66.145836"
           ry="47.625" />
        <path
           d="m 131.89685,42.4279 -0.10956,0.02636 a 139.55653,139.55653 0 0 1 -65.137093,0 l -0.504362,-0.120928 -0.504362,-0.120923 a 139.55655,139.55655 0 0 0 -65.13710897,0 l -0.07855,0.0186 A 66.145836,47.625 0 0 0 2.9167847e-8,47.624999 66.145836,47.625 0 0 0 0.39480803,52.822097 l 0.109554,-0.02635 a 139.55655,139.55655 0 0 1 65.13710897,0 l 0.504362,0.120923 0.504362,0.120923 a 139.55656,139.55656 0 0 0 65.137095,0 l 0.0786,-0.0186 a 66.145836,47.625 0 0 0 0.42582,-5.365564 v -0.05684 a 66.145836,47.625 0 0 0 -0.39481,-5.168677 z"
           style="fill:#ffffff;stroke-width:0;stroke-dasharray:none;paint-order:markers fill stroke"
           id="path6-1-6-1-8-1" />
      </g>
      <g
         id="beanBrown-7-3"
         style="stroke-width:0;stroke-dasharray:none"
         transform="matrix(0.09251181,0.17731762,-0.17731762,0.09251181,45.283384,92.406153)">
        <ellipse
           style="fill:#705533;fill-opacity:1;stroke:#000000;stroke-width:0;stroke-dasharray:none;paint-order:markers fill stroke"
           id="path3-5-30-9"
           cx="66.145836"
           cy="47.625"
           rx="66.145836"
           ry="47.625" />
        <path
           d="m 131.89685,42.4279 -0.10956,0.02636 a 139.55653,139.55653 0 0 1 -65.137093,0 l -0.504362,-0.120928 -0.504362,-0.120923 a 139.55655,139.55655 0 0 0 -65.13710897,0 l -0.07855,0.0186 A 66.145836,47.625 0 0 0 2.9167847e-8,47.624999 66.145836,47.625 0 0 0 0.39480803,52.822097 l 0.109554,-0.02635 a 139.55655,139.55655 0 0 1 65.13710897,0 l 0.504362,0.120923 0.504362,0.120923 a 139.55656,139.55656 0 0 0 65.137095,0 l 0.0786,-0.0186 a 66.145836,47.625 0 0 0 0.42582,-5.365564 v -0.05684 a 66.145836,47.625 0 0 0 -0.39481,-5.168677 z"
           style="fill:#ffffff;stroke-width:0;stroke-dasharray:none;paint-order:markers fill stroke"
           id="path6-1-0-5" />
      </g>
      <g
         id="beanWhite-1-8"
         style="stroke-width:0;stroke-dasharray:none"
         transform="matrix(0.14682373,0.13580414,-0.13580414,0.14682373,37.45395,120.20505)">
        <ellipse
           style="fill:#dac7af;fill-opacity:1;stroke:#000000;stroke-width:0;stroke-dasharray:none;paint-order:markers fill stroke"
           id="path3-5-7-2-59-2"
           cx="66.145836"
           cy="47.625"
           rx="66.145836"
           ry="47.625" />
        <path
           d="m 131.89685,42.4279 -0.10956,0.02636 a 139.55653,139.55653 0 0 1 -65.137093,0 l -0.504362,-0.120928 -0.504362,-0.120923 a 139.55655,139.55655 0 0 0 -65.13710897,0 l -0.07855,0.0186 A 66.145836,47.625 0 0 0 2.9167847e-8,47.624999 66.145836,47.625 0 0 0 0.39480803,52.822097 l 0.109554,-0.02635 a 139.55655,139.55655 0 0 1 65.13710897,0 l 0.504362,0.120923 0.504362,0.120923 a 139.55656,139.55656 0 0 0 65.137095,0 l 0.0786,-0.0186 a 66.145836,47.625 0 0 0 0.42582,-5.365564 v -0.05684 a 66.145836,47.625 0 0 0 -0.39481,-5.168677 z"
           style="fill:#ffffff;stroke-width:0;stroke-dasharray:none;paint-order:markers fill stroke"
           id="path6-1-6-1-5-7" />
      </g>
      <g
         id="beanBrown-1-9"
         style="stroke-width:0;stroke-dasharray:none"
         transform="matrix(0.03980655,-0.19599849,0.19599849,0.03980655,27.743821,161.17102)">
        <ellipse
           style="fill:#705533;fill-opacity:1;stroke:#000000;stroke-width:0;stroke-dasharray:none;paint-order:markers fill stroke"
           id="path3-5-29-6"
           cx="66.145836"
           cy="47.625"
           rx="66.145836"
           ry="47.625" />
        <path
           d="m 131.89685,42.4279 -0.10956,0.02636 a 139.55653,139.55653 0 0 1 -65.137093,0 l -0.504362,-0.120928 -0.504362,-0.120923 a 139.55655,139.55655 0 0 0 -65.13710897,0 l -0.07855,0.0186 A 66.145836,47.625 0 0 0 2.9167847e-8,47.624999 66.145836,47.625 0 0 0 0.39480803,52.822097 l 0.109554,-0.02635 a 139.55655,139.55655 0 0 1 65.13710897,0 l 0.504362,0.120923 0.504362,0.120923 a 139.55656,139.55656 0 0 0 65.137095,0 l 0.0786,-0.0186 a 66.145836,47.625 0 0 0 0.42582,-5.365564 v -0.05684 a 66.145836,47.625 0 0 0 -0.39481,-5.168677 z"
           style="fill:#ffffff;stroke-width:0;stroke-dasharray:none;paint-order:markers fill stroke"
           id="path6-1-03-1" />
      </g>
      <g
         id="beanDarkBrown-6-5-7"
         style="stroke-width:0;stroke-dasharray:none"
         transform="matrix(0.15878338,0.12160513,-0.12160513,0.15878338,34.976042,229.66291)">
        <ellipse
           style="fill:#503d25;fill-opacity:1;stroke:#000000;stroke-width:0;stroke-dasharray:none;paint-order:markers fill stroke"
           id="path3-1-4-7"
           cx="66.145836"
           cy="47.625"
           rx="66.145836"
           ry="47.625" />
        <path
           d="m 131.89685,42.4279 -0.10956,0.02636 a 139.55653,139.55653 0 0 1 -65.137093,0 l -0.504362,-0.120928 -0.504362,-0.120923 a 139.55655,139.55655 0 0 0 -65.13710897,0 l -0.07855,0.0186 A 66.145836,47.625 0 0 0 2.9167847e-8,47.624999 66.145836,47.625 0 0 0 0.39480803,52.822097 l 0.109554,-0.02635 a 139.55655,139.55655 0 0 1 65.13710897,0 l 0.504362,0.120923 0.504362,0.120923 a 139.55656,139.55656 0 0 0 65.137095,0 l 0.0786,-0.0186 a 66.145836,47.625 0 0 0 0.42582,-5.365564 v -0.05684 a 66.145836,47.625 0 0 0 -0.39481,-5.168677 z"
           style="fill:#ffffff;stroke-width:0;stroke-dasharray:none;paint-order:markers fill stroke"
           id="path6-8-3-1" />
      </g>
      <g
         id="beanBrown-70-9"
         style="stroke-width:0;stroke-dasharray:none"
         transform="matrix(0.1706812,0.10424923,-0.10424923,0.1706812,47.880697,178.21501)">
        <ellipse
           style="fill:#705533;fill-opacity:1;stroke:#000000;stroke-width:0;stroke-dasharray:none;paint-order:markers fill stroke"
           id="path3-5-8-0"
           cx="66.145836"
           cy="47.625"
           rx="66.145836"
           ry="47.625" />
        <path
           d="m 131.89685,42.4279 -0.10956,0.02636 a 139.55653,139.55653 0 0 1 -65.137093,0 l -0.504362,-0.120928 -0.504362,-0.120923 a 139.55655,139.55655 0 0 0 -65.13710897,0 l -0.07855,0.0186 A 66.145836,47.625 0 0 0 2.9167847e-8,47.624999 66.145836,47.625 0 0 0 0.39480803,52.822097 l 0.109554,-0.02635 a 139.55655,139.55655 0 0 1 65.13710897,0 l 0.504362,0.120923 0.504362,0.120923 a 139.55656,139.55656 0 0 0 65.137095,0 l 0.0786,-0.0186 a 66.145836,47.625 0 0 0 0.42582,-5.365564 v -0.05684 a 66.145836,47.625 0 0 0 -0.39481,-5.168677 z"
           style="fill:#ffffff;stroke-width:0;stroke-dasharray:none;paint-order:markers fill stroke"
           id="path6-1-9-3" />
      </g>
      <g
         id="beanDarkBrown-6-4"
         style="stroke-width:0;stroke-dasharray:none"
         transform="matrix(0.15878338,0.12160514,-0.12160514,0.15878338,34.976082,-11.372404)">
        <ellipse
           style="fill:#503d25;fill-opacity:1;stroke:#000000;stroke-width:0;stroke-dasharray:none;paint-order:markers fill stroke"
           id="path3-1-1"
           cx="66.145836"
           cy="47.625"
           rx="66.145836"
           ry="47.625" />
        <path
           d="m 131.89685,42.4279 -0.10956,0.02636 a 139.55653,139.55653 0 0 1 -65.137093,0 l -0.504362,-0.120928 -0.504362,-0.120923 a 139.55655,139.55655 0 0 0 -65.13710897,0 l -0.07855,0.0186 A 66.145836,47.625 0 0 0 2.9167847e-8,47.624999 66.145836,47.625 0 0 0 0.39480803,52.822097 l 0.109554,-0.02635 a 139.55655,139.55655 0 0 1 65.13710897,0 l 0.504362,0.120923 0.504362,0.120923 a 139.55656,139.55656 0 0 0 65.137095,0 l 0.0786,-0.0186 a 66.145836,47.625 0 0 0 0.42582,-5.365564 v -0.05684 a 66.145836,47.625 0 0 0 -0.39481,-5.168677 z"
           style="fill:#ffffff;stroke-width:0;stroke-dasharray:none;paint-order:markers fill stroke"
           id="path6-8-7" />
      </g>
      <g
         id="beanDarkBrown-2-9-5"
         style="stroke-width:0;stroke-dasharray:none"
         transform="matrix(0.16804308,-0.10845043,0.10845043,0.16804308,22.641547,88.504593)">
        <ellipse
           style="fill:#503d25;fill-opacity:1;stroke:#000000;stroke-width:0;stroke-dasharray:none;paint-order:markers fill stroke"
           id="path3-16-2-3"
           cx="66.145836"
           cy="47.625"
           rx="66.145836"
           ry="47.625" />
        <path
           d="m 131.89685,42.4279 -0.10956,0.02636 a 139.55653,139.55653 0 0 1 -65.137093,0 l -0.504362,-0.120928 -0.504362,-0.120923 a 139.55655,139.55655 0 0 0 -65.13710897,0 l -0.07855,0.0186 A 66.145836,47.625 0 0 0 2.9167847e-8,47.624999 66.145836,47.625 0 0 0 0.39480803,52.822097 l 0.109554,-0.02635 a 139.55655,139.55655 0 0 1 65.13710897,0 l 0.504362,0.120923 0.504362,0.120923 a 139.55656,139.55656 0 0 0 65.137095,0 l 0.0786,-0.0186 a 66.145836,47.625 0 0 0 0.42582,-5.365564 v -0.05684 a 66.145836,47.625 0 0 0 -0.39481,-5.168677 z"
           style="fill:#ffffff;stroke-width:0;stroke-dasharray:none;paint-order:markers fill stroke"
           id="path6-83-0-3" />
      </g>
      <g
         id="beanBrown-78-2"
         style="stroke-width:0;stroke-dasharray:none"
         transform="matrix(0.07093822,0.18699663,-0.18699663,0.07093822,43.107113,211.71661)">
        <ellipse
           style="fill:#705533;fill-opacity:1;stroke:#000000;stroke-width:0;stroke-dasharray:none;paint-order:markers fill stroke"
           id="path3-5-37-4"
           cx="66.145836"
           cy="47.625"
           rx="66.145836"
           ry="47.625" />
        <path
           d="m 131.89685,42.4279 -0.10956,0.02636 a 139.55653,139.55653 0 0 1 -65.137093,0 l -0.504362,-0.120928 -0.504362,-0.120923 a 139.55655,139.55655 0 0 0 -65.13710897,0 l -0.07855,0.0186 A 66.145836,47.625 0 0 0 2.9167847e-8,47.624999 66.145836,47.625 0 0 0 0.39480803,52.822097 l 0.109554,-0.02635 a 139.55655,139.55655 0 0 1 65.13710897,0 l 0.504362,0.120923 0.504362,0.120923 a 139.55656,139.55656 0 0 0 65.137095,0 l 0.0786,-0.0186 a 66.145836,47.625 0 0 0 0.42582,-5.365564 v -0.05684 a 66.145836,47.625 0 0 0 -0.39481,-5.168677 z"
           style="fill:#ffffff;stroke-width:0;stroke-dasharray:none;paint-order:markers fill stroke"
           id="path6-1-1-1" />
      </g>
      <g
         id="beanLightBrown-2-2"
         style="stroke-width:0;stroke-dasharray:none"
         transform="matrix(0.10989693,-0.16710068,0.16710068,0.10989693,38.220339,88.158311)">
        <ellipse
           style="fill:#b89365;fill-opacity:1;stroke:#000000;stroke-width:0;stroke-dasharray:none;paint-order:markers fill stroke"
           id="path3-5-7-0-9"
           cx="66.145836"
           cy="47.625"
           rx="66.145836"
           ry="47.625" />
        <path
           d="m 131.89685,42.4279 -0.10956,0.02636 a 139.55653,139.55653 0 0 1 -65.137093,0 l -0.504362,-0.120928 -0.504362,-0.120923 a 139.55655,139.55655 0 0 0 -65.13710897,0 l -0.07855,0.0186 A 66.145836,47.625 0 0 0 2.9167847e-8,47.624999 66.145836,47.625 0 0 0 0.39480803,52.822097 l 0.109554,-0.02635 a 139.55655,139.55655 0 0 1 65.13710897,0 l 0.504362,0.120923 0.504362,0.120923 a 139.55656,139.55656 0 0 0 65.137095,0 l 0.0786,-0.0186 a 66.145836,47.625 0 0 0 0.42582,-5.365564 v -0.05684 a 66.145836,47.625 0 0 0 -0.39481,-5.168677 z"
           style="fill:#ffffff;stroke-width:0;stroke-dasharray:none;paint-order:markers fill stroke"
           id="path6-1-6-3-0" />
      </g>
      <g
         id="beanLightBrown-6-8"
         style="stroke-width:0;stroke-dasharray:none"
         transform="matrix(-0.13036821,-0.15167104,0.15167104,-0.13036821,55.61562,171.2154)">
        <ellipse
           style="fill:#b89365;fill-opacity:1;stroke:#000000;stroke-width:0;stroke-dasharray:none;paint-order:markers fill stroke"
           id="path3-5-7-27-7"
           cx="66.145836"
           cy="47.625"
           rx="66.145836"
           ry="47.625" />
        <path
           d="m 131.89685,42.4279 -0.10956,0.02636 a 139.55653,139.55653 0 0 1 -65.137093,0 l -0.504362,-0.120928 -0.504362,-0.120923 a 139.55655,139.55655 0 0 0 -65.13710897,0 l -0.07855,0.0186 A 66.145836,47.625 0 0 0 2.9167847e-8,47.624999 66.145836,47.625 0 0 0 0.39480803,52.822097 l 0.109554,-0.02635 a 139.55655,139.55655 0 0 1 65.13710897,0 l 0.504362,0.120923 0.504362,0.120923 a 139.55656,139.55656 0 0 0 65.137095,0 l 0.0786,-0.0186 a 66.145836,47.625 0 0 0 0.42582,-5.365564 v -0.05684 a 66.145836,47.625 0 0 0 -0.39481,-5.168677 z"
           style="fill:#ffffff;stroke-width:0;stroke-dasharray:none;paint-order:markers fill stroke"
           id="path6-1-6-2-4" />
      </g>
    </g>
  </g>
</svg>
